<svg xmlns="http://www.w3.org/2000/svg" xmlns:xlink="http://www.w3.org/1999/xlink" width="500" zoomAndPan="magnify" viewBox="0 0 375 374.999991" height="500" preserveAspectRatio="xMidYMid meet" version="1.0"><defs><filter x="0%" y="0%" width="100%" height="100%" id="id1"><feColorMatrix values="0 0 0 0 1 0 0 0 0 1 0 0 0 0 1 0 0 0 1 0" color-interpolation-filters="sRGB"/></filter><clipPath id="id2"><path d="M 307 48.515625 L 356.25 48.515625 L 356.25 192 L 307 192 Z M 307 48.515625 " clip-rule="nonzero"/></clipPath><clipPath id="id3"><path d="M 307 92 L 356.25 92 L 356.25 192 L 307 192 Z M 307 92 " clip-rule="nonzero"/></clipPath><clipPath id="id4"><path d="M 311 48.515625 L 351 48.515625 L 351 89 L 311 89 Z M 311 48.515625 " clip-rule="nonzero"/></clipPath><clipPath id="id5"><path d="M 117 48.515625 L 167 48.515625 L 167 192 L 117 192 Z M 117 48.515625 " clip-rule="nonzero"/></clipPath><clipPath id="id6"><path d="M 121 48.515625 L 162 48.515625 L 162 89 L 121 89 Z M 121 48.515625 " clip-rule="nonzero"/></clipPath><clipPath id="id7"><path d="M 18.75 48.515625 L 68 48.515625 L 68 192 L 18.75 192 Z M 18.75 48.515625 " clip-rule="nonzero"/></clipPath><clipPath id="id8"><path d="M 18.75 92 L 68 92 L 68 192 L 18.75 192 Z M 18.75 92 " clip-rule="nonzero"/></clipPath><clipPath id="id9"><path d="M 22 48.515625 L 63 48.515625 L 63 89 L 22 89 Z M 22 48.515625 " clip-rule="nonzero"/></clipPath><clipPath id="id10"><path d="M 212 48.515625 L 262 48.515625 L 262 192 L 212 192 Z M 212 48.515625 " clip-rule="nonzero"/></clipPath><clipPath id="id11"><path d="M 216 48.515625 L 257 48.515625 L 257 89 L 216 89 Z M 216 48.515625 " clip-rule="nonzero"/></clipPath><clipPath id="id12"><path d="M 306 48.515625 L 356.25 48.515625 L 356.25 193 L 306 193 Z M 306 48.515625 " clip-rule="nonzero"/></clipPath><mask id="id13"><g filter="url(#id1)"><rect x="-37.5" width="450" fill="#000000" y="-37.499999" height="449.999989" fill-opacity="0.498"/></g></mask><clipPath id="id14"><path d="M 1 0.515625 L 50.25 0.515625 L 50.25 144 L 1 144 Z M 1 0.515625 " clip-rule="nonzero"/></clipPath><clipPath id="id15"><path d="M 1 44 L 50.25 44 L 50.25 144 L 1 144 Z M 1 44 " clip-rule="nonzero"/></clipPath><clipPath id="id16"><path d="M 5 0.515625 L 45 0.515625 L 45 41 L 5 41 Z M 5 0.515625 " clip-rule="nonzero"/></clipPath><clipPath id="id17"><rect x="0" width="51" y="0" height="145"/></clipPath><clipPath id="id18"><path d="M 117 48.515625 L 168 48.515625 L 168 193 L 117 193 Z M 117 48.515625 " clip-rule="nonzero"/></clipPath><mask id="id19"><g filter="url(#id1)"><rect x="-37.5" width="450" fill="#000000" y="-37.499999" height="449.999989" fill-opacity="0.498"/></g></mask><clipPath id="id20"><path d="M 0.359375 0.515625 L 50 0.515625 L 50 144 L 0.359375 144 Z M 0.359375 0.515625 " clip-rule="nonzero"/></clipPath><clipPath id="id21"><path d="M 0.359375 44 L 50 44 L 50 144 L 0.359375 144 Z M 0.359375 44 " clip-rule="nonzero"/></clipPath><clipPath id="id22"><path d="M 4 0.515625 L 45 0.515625 L 45 41 L 4 41 Z M 4 0.515625 " clip-rule="nonzero"/></clipPath><clipPath id="id23"><rect x="0" width="51" y="0" height="145"/></clipPath><clipPath id="id24"><path d="M 18.75 48.515625 L 68 48.515625 L 68 193 L 18.75 193 Z M 18.75 48.515625 " clip-rule="nonzero"/></clipPath><mask id="id25"><g filter="url(#id1)"><rect x="-37.5" width="450" fill="#000000" y="-37.499999" height="449.999989" fill-opacity="0.498"/></g></mask><clipPath id="id26"><path d="M 0.75 0.515625 L 49.921875 0.515625 L 49.921875 144 L 0.75 144 Z M 0.75 0.515625 " clip-rule="nonzero"/></clipPath><clipPath id="id27"><path d="M 0.75 44 L 49.921875 44 L 49.921875 144 L 0.75 144 Z M 0.75 44 " clip-rule="nonzero"/></clipPath><clipPath id="id28"><path d="M 4 0.515625 L 45 0.515625 L 45 41 L 4 41 Z M 4 0.515625 " clip-rule="nonzero"/></clipPath><clipPath id="id29"><rect x="0" width="50" y="0" height="145"/></clipPath><clipPath id="id30"><path d="M 212 48.515625 L 262 48.515625 L 262 193 L 212 193 Z M 212 48.515625 " clip-rule="nonzero"/></clipPath><mask id="id31"><g filter="url(#id1)"><rect x="-37.5" width="450" fill="#000000" y="-37.499999" height="449.999989" fill-opacity="0.498"/></g></mask><clipPath id="id32"><path d="M 0.398438 0.515625 L 49.601562 0.515625 L 49.601562 144 L 0.398438 144 Z M 0.398438 0.515625 " clip-rule="nonzero"/></clipPath><clipPath id="id33"><path d="M 0.398438 44 L 49.601562 44 L 49.601562 144 L 0.398438 144 Z M 0.398438 44 " clip-rule="nonzero"/></clipPath><clipPath id="id34"><path d="M 4 0.515625 L 45 0.515625 L 45 41 L 4 41 Z M 4 0.515625 " clip-rule="nonzero"/></clipPath><clipPath id="id35"><rect x="0" width="50" y="0" height="145"/></clipPath><mask id="id36"><g filter="url(#id1)"><rect x="-37.5" width="450" fill="#000000" y="-37.499999" height="449.999989" fill-opacity="0.298"/></g></mask><clipPath id="id37"><path d="M 0.199219 0.320312 L 55.640625 0.320312 L 55.640625 161.839844 L 0.199219 161.839844 Z M 0.199219 0.320312 " clip-rule="nonzero"/></clipPath><clipPath id="id38"><path d="M 0.199219 50 L 55.640625 50 L 55.640625 161.839844 L 0.199219 161.839844 Z M 0.199219 50 " clip-rule="nonzero"/></clipPath><clipPath id="id39"><path d="M 4 0.320312 L 50 0.320312 L 50 46 L 4 46 Z M 4 0.320312 " clip-rule="nonzero"/></clipPath><clipPath id="id40"><rect x="0" width="56" y="0" height="162"/></clipPath><mask id="id41"><g filter="url(#id1)"><rect x="-37.5" width="450" fill="#000000" y="-37.499999" height="449.999989" fill-opacity="0.298"/></g></mask><clipPath id="id42"><path d="M 0.238281 0.320312 L 56 0.320312 L 56 161.839844 L 0.238281 161.839844 Z M 0.238281 0.320312 " clip-rule="nonzero"/></clipPath><clipPath id="id43"><path d="M 0.238281 50 L 56 50 L 56 161.839844 L 0.238281 161.839844 Z M 0.238281 50 " clip-rule="nonzero"/></clipPath><clipPath id="id44"><path d="M 5 0.320312 L 50 0.320312 L 50 46 L 5 46 Z M 5 0.320312 " clip-rule="nonzero"/></clipPath><clipPath id="id45"><rect x="0" width="57" y="0" height="162"/></clipPath><mask id="id46"><g filter="url(#id1)"><rect x="-37.5" width="450" fill="#000000" y="-37.499999" height="449.999989" fill-opacity="0.298"/></g></mask><clipPath id="id47"><path d="M 1 0.320312 L 56.28125 0.320312 L 56.28125 161.839844 L 1 161.839844 Z M 1 0.320312 " clip-rule="nonzero"/></clipPath><clipPath id="id48"><path d="M 1 50 L 56.28125 50 L 56.28125 161.839844 L 1 161.839844 Z M 1 50 " clip-rule="nonzero"/></clipPath><clipPath id="id49"><path d="M 5 0.320312 L 51 0.320312 L 51 46 L 5 46 Z M 5 0.320312 " clip-rule="nonzero"/></clipPath><clipPath id="id50"><rect x="0" width="57" y="0" height="162"/></clipPath><mask id="id51"><g filter="url(#id1)"><rect x="-37.5" width="450" fill="#000000" y="-37.499999" height="449.999989" fill-opacity="0.098"/></g></mask><clipPath id="id52"><path d="M 1 0.160156 L 62.320312 0.160156 L 62.320312 179.679688 L 1 179.679688 Z M 1 0.160156 " clip-rule="nonzero"/></clipPath><clipPath id="id53"><path d="M 1 55 L 62.320312 55 L 62.320312 179.679688 L 1 179.679688 Z M 1 55 " clip-rule="nonzero"/></clipPath><clipPath id="id54"><path d="M 6 0.160156 L 56 0.160156 L 56 50 L 6 50 Z M 6 0.160156 " clip-rule="nonzero"/></clipPath><clipPath id="id55"><rect x="0" width="63" y="0" height="180"/></clipPath><mask id="id56"><g filter="url(#id1)"><rect x="-37.5" width="450" fill="#000000" y="-37.499999" height="449.999989" fill-opacity="0.098"/></g></mask><clipPath id="id57"><path d="M 0.800781 0.160156 L 62 0.160156 L 62 179.679688 L 0.800781 179.679688 Z M 0.800781 0.160156 " clip-rule="nonzero"/></clipPath><clipPath id="id58"><path d="M 0.800781 55 L 62 55 L 62 179.679688 L 0.800781 179.679688 Z M 0.800781 55 " clip-rule="nonzero"/></clipPath><clipPath id="id59"><path d="M 5 0.160156 L 56 0.160156 L 56 50 L 5 50 Z M 5 0.160156 " clip-rule="nonzero"/></clipPath><clipPath id="id60"><rect x="0" width="63" y="0" height="180"/></clipPath><clipPath id="id61"><path d="M 154 138 L 223 138 L 223 337.265625 L 154 337.265625 Z M 154 138 " clip-rule="nonzero"/></clipPath><clipPath id="id62"><path d="M 154 199 L 223 199 L 223 337.265625 L 154 337.265625 Z M 154 199 " clip-rule="nonzero"/></clipPath><clipPath id="id63"><path d="M 153 138 L 224 138 L 224 337.265625 L 153 337.265625 Z M 153 138 " clip-rule="nonzero"/></clipPath><mask id="id64"><g filter="url(#id1)"><rect x="-37.5" width="450" fill="#000000" y="-37.499999" height="449.999989" fill-opacity="0.4"/></g></mask><clipPath id="id65"><path d="M 1 0.238281 L 70 0.238281 L 70 199.265625 L 1 199.265625 Z M 1 0.238281 " clip-rule="nonzero"/></clipPath><clipPath id="id66"><path d="M 1 61 L 70 61 L 70 199.265625 L 1 199.265625 Z M 1 61 " clip-rule="nonzero"/></clipPath><clipPath id="id67"><path d="M 7 0.238281 L 62 0.238281 L 62 56 L 7 56 Z M 7 0.238281 " clip-rule="nonzero"/></clipPath><clipPath id="id68"><rect x="0" width="71" y="0" height="200"/></clipPath></defs><g clip-path="url(#id2)"><path fill="#d13f3e" d="M 307.375 121.652344 C 307.382812 121.652344 307.390625 121.652344 307.402344 121.652344 C 307.402344 126.0625 307.320312 130.472656 307.417969 134.882812 C 307.546875 140.46875 309.410156 145.457031 312.53125 150.117188 C 314.058594 152.390625 315.445312 155.003906 315.972656 157.648438 C 317.769531 166.644531 319.15625 175.722656 320.703125 184.769531 C 321.570312 189.84375 323.695312 191.703125 328.738281 191.765625 C 330.683594 191.792969 332.632812 191.789062 334.578125 191.769531 C 339.578125 191.710938 341.921875 189.800781 342.769531 184.886719 C 343.910156 178.257812 344.765625 171.574219 346.074219 164.988281 C 346.988281 160.351562 347.421875 155.132812 349.921875 151.414062 C 353.621094 145.894531 355.984375 140.320312 356.09375 133.820312 C 356.238281 125.390625 356.160156 116.957031 356.125 108.527344 C 356.101562 102.164062 353.273438 97.425781 347.1875 95.34375 C 336.828125 91.792969 326.300781 91.796875 315.972656 95.425781 C 310.257812 97.433594 307.460938 101.960938 307.382812 108.03125 C 307.320312 112.570312 307.375 117.109375 307.375 121.652344 Z M 350.914062 68.746094 C 350.976562 57.722656 342.332031 48.84375 331.417969 48.714844 C 320.757812 48.589844 311.539062 57.65625 311.386719 68.414062 C 311.238281 79.199219 320.121094 88.152344 331.082031 88.261719 C 342.183594 88.375 350.847656 79.851562 350.914062 68.746094 Z M 350.914062 68.746094 " fill-opacity="1" fill-rule="nonzero"/></g><g clip-path="url(#id3)"><path fill="#d13f3e" d="M 307.375 121.652344 C 307.375 117.109375 307.320312 112.570312 307.382812 108.03125 C 307.460938 101.960938 310.257812 97.429688 315.972656 95.425781 C 326.300781 91.796875 336.828125 91.792969 347.191406 95.34375 C 353.273438 97.425781 356.101562 102.164062 356.125 108.527344 C 356.160156 116.957031 356.238281 125.390625 356.09375 133.816406 C 355.984375 140.320312 353.621094 145.894531 349.921875 151.414062 C 347.421875 155.132812 346.988281 160.351562 346.074219 164.988281 C 344.765625 171.574219 343.910156 178.257812 342.769531 184.882812 C 341.921875 189.800781 339.578125 191.710938 334.578125 191.769531 C 332.632812 191.789062 330.683594 191.792969 328.738281 191.765625 C 323.699219 191.699219 321.570312 189.84375 320.703125 184.769531 C 319.15625 175.722656 317.769531 166.644531 315.976562 157.648438 C 315.445312 155.003906 314.058594 152.386719 312.53125 150.117188 C 309.410156 145.457031 307.546875 140.46875 307.421875 134.882812 C 307.320312 130.472656 307.402344 126.0625 307.402344 121.652344 C 307.390625 121.652344 307.382812 121.652344 307.375 121.652344 Z M 307.375 121.652344 " fill-opacity="1" fill-rule="evenodd"/></g><g clip-path="url(#id4)"><path fill="#d13f3e" d="M 350.914062 68.746094 C 350.847656 79.851562 342.183594 88.375 331.082031 88.261719 C 320.121094 88.152344 311.238281 79.199219 311.386719 68.414062 C 311.539062 57.65625 320.757812 48.589844 331.417969 48.714844 C 342.332031 48.84375 350.976562 57.722656 350.914062 68.746094 Z M 350.914062 68.746094 " fill-opacity="1" fill-rule="evenodd"/></g><g clip-path="url(#id5)"><path fill="#d13f3e" d="M 117.773438 121.652344 C 117.78125 121.652344 117.789062 121.652344 117.800781 121.652344 C 117.800781 126.0625 117.722656 130.472656 117.820312 134.882812 C 117.949219 140.46875 119.8125 145.457031 122.9375 150.117188 C 124.460938 152.390625 125.84375 155.003906 126.375 157.648438 C 128.171875 166.644531 129.554688 175.722656 131.105469 184.769531 C 131.96875 189.84375 134.097656 191.703125 139.136719 191.765625 C 141.082031 191.792969 143.03125 191.789062 144.980469 191.769531 C 149.980469 191.710938 152.324219 189.800781 153.171875 184.886719 C 154.3125 178.257812 155.164062 171.574219 156.472656 164.988281 C 157.386719 160.351562 157.824219 155.132812 160.324219 151.414062 C 164.023438 145.894531 166.386719 140.320312 166.492188 133.820312 C 166.640625 125.390625 166.5625 116.957031 166.527344 108.527344 C 166.5 102.164062 163.675781 97.425781 157.589844 95.34375 C 147.230469 91.792969 136.703125 91.796875 126.371094 95.425781 C 120.65625 97.433594 117.863281 101.960938 117.78125 108.03125 C 117.722656 112.570312 117.773438 117.109375 117.773438 121.652344 Z M 161.3125 68.746094 C 161.378906 57.722656 152.730469 48.84375 141.816406 48.714844 C 131.15625 48.589844 121.9375 57.65625 121.789062 68.414062 C 121.640625 79.199219 130.519531 88.152344 141.480469 88.261719 C 152.582031 88.375 161.246094 79.851562 161.3125 68.746094 Z M 161.3125 68.746094 " fill-opacity="1" fill-rule="nonzero"/></g><path fill="#d13f3e" d="M 117.773438 121.652344 C 117.773438 117.109375 117.722656 112.570312 117.78125 108.03125 C 117.863281 101.960938 120.65625 97.429688 126.371094 95.425781 C 136.703125 91.796875 147.230469 91.792969 157.589844 95.34375 C 163.675781 97.425781 166.5 102.164062 166.527344 108.527344 C 166.5625 116.957031 166.640625 125.390625 166.492188 133.816406 C 166.386719 140.320312 164.027344 145.894531 160.324219 151.414062 C 157.824219 155.132812 157.390625 160.351562 156.476562 164.988281 C 155.167969 171.574219 154.3125 178.257812 153.171875 184.882812 C 152.324219 189.800781 149.980469 191.710938 144.980469 191.769531 C 143.03125 191.789062 141.085938 191.792969 139.136719 191.765625 C 134.097656 191.699219 131.972656 189.84375 131.105469 184.769531 C 129.558594 175.722656 128.171875 166.644531 126.375 157.648438 C 125.84375 155.003906 124.460938 152.386719 122.9375 150.117188 C 119.8125 145.457031 117.949219 140.46875 117.820312 134.882812 C 117.722656 130.472656 117.800781 126.0625 117.800781 121.652344 C 117.789062 121.652344 117.78125 121.652344 117.773438 121.652344 Z M 117.773438 121.652344 " fill-opacity="1" fill-rule="evenodd"/><g clip-path="url(#id6)"><path fill="#d13f3e" d="M 161.3125 68.746094 C 161.246094 79.851562 152.582031 88.375 141.480469 88.261719 C 130.519531 88.152344 121.640625 79.199219 121.789062 68.414062 C 121.9375 57.65625 131.15625 48.589844 141.816406 48.714844 C 152.730469 48.84375 161.375 57.722656 161.3125 68.746094 Z M 161.3125 68.746094 " fill-opacity="1" fill-rule="evenodd"/></g><g clip-path="url(#id7)"><path fill="#d13f3e" d="M 18.769531 121.652344 C 18.777344 121.652344 18.789062 121.652344 18.796875 121.652344 C 18.796875 126.0625 18.71875 130.472656 18.816406 134.882812 C 18.945312 140.46875 20.804688 145.457031 23.929688 150.117188 C 25.457031 152.390625 26.84375 155.003906 27.371094 157.648438 C 29.164062 166.644531 30.554688 175.722656 32.101562 184.769531 C 32.96875 189.84375 35.09375 191.703125 40.136719 191.765625 C 42.082031 191.792969 44.027344 191.789062 45.976562 191.769531 C 50.976562 191.710938 53.320312 189.800781 54.167969 184.886719 C 55.308594 178.257812 56.160156 171.574219 57.472656 164.988281 C 58.386719 160.351562 58.820312 155.132812 61.320312 151.414062 C 65.019531 145.894531 67.382812 140.320312 67.488281 133.820312 C 67.636719 125.390625 67.558594 116.957031 67.523438 108.527344 C 67.496094 102.164062 64.671875 97.425781 58.585938 95.34375 C 48.226562 91.792969 37.699219 91.796875 27.367188 95.425781 C 21.65625 97.429688 18.859375 101.960938 18.777344 108.03125 C 18.71875 112.570312 18.769531 117.109375 18.769531 121.652344 Z M 62.308594 68.746094 C 62.375 57.722656 53.730469 48.84375 42.816406 48.714844 C 32.152344 48.589844 22.933594 57.65625 22.785156 68.414062 C 22.636719 79.199219 31.515625 88.152344 42.476562 88.261719 C 53.578125 88.375 62.242188 79.851562 62.308594 68.746094 Z M 62.308594 68.746094 " fill-opacity="1" fill-rule="nonzero"/></g><g clip-path="url(#id8)"><path fill="#d13f3e" d="M 18.769531 121.652344 C 18.769531 117.109375 18.71875 112.570312 18.777344 108.03125 C 18.859375 101.960938 21.65625 97.429688 27.371094 95.425781 C 37.699219 91.796875 48.226562 91.792969 58.585938 95.34375 C 64.671875 97.425781 67.5 102.164062 67.523438 108.527344 C 67.558594 116.957031 67.636719 125.390625 67.492188 133.816406 C 67.382812 140.320312 65.019531 145.894531 61.320312 151.414062 C 58.820312 155.132812 58.386719 160.351562 57.472656 164.988281 C 56.164062 171.574219 55.308594 178.257812 54.167969 184.882812 C 53.320312 189.800781 50.976562 191.710938 45.976562 191.769531 C 44.03125 191.789062 42.082031 191.792969 40.136719 191.765625 C 35.097656 191.699219 32.96875 189.84375 32.101562 184.769531 C 30.554688 175.722656 29.167969 166.644531 27.375 157.648438 C 26.84375 155.003906 25.457031 152.386719 23.929688 150.117188 C 20.808594 145.457031 18.945312 140.46875 18.816406 134.882812 C 18.71875 130.472656 18.800781 126.0625 18.800781 121.652344 C 18.789062 121.652344 18.777344 121.652344 18.769531 121.652344 Z M 18.769531 121.652344 " fill-opacity="1" fill-rule="evenodd"/></g><g clip-path="url(#id9)"><path fill="#d13f3e" d="M 62.308594 68.746094 C 62.242188 79.851562 53.578125 88.375 42.476562 88.261719 C 31.515625 88.152344 22.636719 79.199219 22.785156 68.414062 C 22.933594 57.65625 32.152344 48.589844 42.816406 48.714844 C 53.730469 48.84375 62.375 57.722656 62.308594 68.746094 Z M 62.308594 68.746094 " fill-opacity="1" fill-rule="evenodd"/></g><g clip-path="url(#id10)"><path fill="#d13f3e" d="M 212.742188 121.652344 C 212.753906 121.652344 212.765625 121.652344 212.773438 121.652344 C 212.773438 126.0625 212.695312 130.472656 212.796875 134.882812 C 212.921875 140.46875 214.78125 145.457031 217.90625 150.117188 C 219.433594 152.390625 220.820312 155.003906 221.347656 157.648438 C 223.144531 166.644531 224.527344 175.722656 226.078125 184.769531 C 226.945312 189.84375 229.070312 191.703125 234.109375 191.765625 C 236.058594 191.792969 238.003906 191.789062 239.953125 191.769531 C 244.949219 191.710938 247.300781 189.800781 248.140625 184.886719 C 249.28125 178.257812 250.136719 171.574219 251.445312 164.988281 C 252.363281 160.351562 252.796875 155.132812 255.296875 151.414062 C 258.996094 145.894531 261.351562 140.320312 261.464844 133.820312 C 261.613281 125.390625 261.539062 116.957031 261.5 108.527344 C 261.472656 102.164062 258.648438 97.425781 252.5625 95.34375 C 242.203125 91.792969 231.675781 91.796875 221.34375 95.425781 C 215.628906 97.433594 212.832031 101.960938 212.753906 108.03125 C 212.695312 112.570312 212.742188 117.109375 212.742188 121.652344 Z M 256.28125 68.746094 C 256.351562 57.722656 247.703125 48.84375 236.789062 48.714844 C 226.132812 48.589844 216.910156 57.65625 216.761719 68.414062 C 216.613281 79.199219 225.488281 88.152344 236.449219 88.261719 C 247.554688 88.375 256.21875 79.851562 256.28125 68.746094 Z M 256.28125 68.746094 " fill-opacity="1" fill-rule="nonzero"/></g><path fill="#d13f3e" d="M 212.742188 121.652344 C 212.742188 117.109375 212.695312 112.570312 212.753906 108.03125 C 212.832031 101.960938 215.628906 97.429688 221.34375 95.425781 C 231.675781 91.796875 242.203125 91.792969 252.566406 95.34375 C 258.648438 97.425781 261.472656 102.164062 261.5 108.527344 C 261.539062 116.957031 261.613281 125.390625 261.464844 133.816406 C 261.355469 140.320312 258.996094 145.894531 255.296875 151.414062 C 252.800781 155.132812 252.363281 160.351562 251.445312 164.988281 C 250.136719 171.574219 249.28125 178.257812 248.144531 184.882812 C 247.300781 189.800781 244.949219 191.710938 239.957031 191.769531 C 238.007812 191.789062 236.058594 191.792969 234.109375 191.765625 C 229.070312 191.699219 226.945312 189.84375 226.078125 184.769531 C 224.527344 175.722656 223.144531 166.644531 221.347656 157.648438 C 220.820312 155.003906 219.433594 152.386719 217.90625 150.117188 C 214.78125 145.457031 212.921875 140.46875 212.796875 134.882812 C 212.695312 130.472656 212.773438 126.0625 212.773438 121.652344 C 212.765625 121.652344 212.753906 121.652344 212.742188 121.652344 Z M 212.742188 121.652344 " fill-opacity="1" fill-rule="evenodd"/><g clip-path="url(#id11)"><path fill="#d13f3e" d="M 256.28125 68.746094 C 256.21875 79.851562 247.554688 88.375 236.449219 88.261719 C 225.488281 88.152344 216.613281 79.199219 216.761719 68.414062 C 216.910156 57.65625 226.132812 48.589844 236.789062 48.714844 C 247.703125 48.84375 256.347656 57.722656 256.28125 68.746094 Z M 256.28125 68.746094 " fill-opacity="1" fill-rule="evenodd"/></g><g clip-path="url(#id12)"><g mask="url(#id13)"><g transform="matrix(1, 0, 0, 1, 306, 48)"><g clip-path="url(#id17)"><g clip-path="url(#id14)"><path fill="#000000" d="M 1.375 73.652344 C 1.382812 73.652344 1.390625 73.652344 1.402344 73.652344 C 1.402344 78.0625 1.320312 82.472656 1.417969 86.882812 C 1.546875 92.46875 3.410156 97.457031 6.53125 102.117188 C 8.058594 104.390625 9.445312 107.003906 9.972656 109.648438 C 11.769531 118.644531 13.15625 127.722656 14.703125 136.769531 C 15.570312 141.84375 17.695312 143.703125 22.738281 143.765625 C 24.683594 143.792969 26.632812 143.789062 28.578125 143.769531 C 33.578125 143.710938 35.921875 141.800781 36.769531 136.886719 C 37.910156 130.257812 38.765625 123.574219 40.074219 116.988281 C 40.988281 112.351562 41.421875 107.132812 43.921875 103.414062 C 47.621094 97.894531 49.984375 92.320312 50.09375 85.820312 C 50.238281 77.390625 50.160156 68.957031 50.125 60.527344 C 50.101562 54.164062 47.273438 49.425781 41.1875 47.34375 C 30.828125 43.792969 20.300781 43.796875 9.972656 47.425781 C 4.257812 49.433594 1.460938 53.960938 1.382812 60.03125 C 1.320312 64.570312 1.375 69.109375 1.375 73.652344 Z M 44.914062 20.746094 C 44.976562 9.722656 36.332031 0.84375 25.417969 0.714844 C 14.757812 0.589844 5.539062 9.65625 5.386719 20.414062 C 5.238281 31.199219 14.121094 40.152344 25.082031 40.261719 C 36.183594 40.375 44.847656 31.851562 44.914062 20.746094 Z M 44.914062 20.746094 " fill-opacity="1" fill-rule="nonzero"/></g><g clip-path="url(#id15)"><path fill="#000000" d="M 1.375 73.652344 C 1.375 69.109375 1.320312 64.570312 1.382812 60.03125 C 1.460938 53.960938 4.257812 49.429688 9.972656 47.425781 C 20.300781 43.796875 30.828125 43.792969 41.191406 47.34375 C 47.273438 49.425781 50.101562 54.164062 50.125 60.527344 C 50.160156 68.957031 50.238281 77.390625 50.09375 85.816406 C 49.984375 92.320312 47.621094 97.894531 43.921875 103.414062 C 41.421875 107.132812 40.988281 112.351562 40.074219 116.988281 C 38.765625 123.574219 37.910156 130.257812 36.769531 136.882812 C 35.921875 141.800781 33.578125 143.710938 28.578125 143.769531 C 26.632812 143.789062 24.683594 143.792969 22.738281 143.765625 C 17.699219 143.699219 15.570312 141.84375 14.703125 136.769531 C 13.15625 127.722656 11.769531 118.644531 9.976562 109.648438 C 9.445312 107.003906 8.058594 104.386719 6.53125 102.117188 C 3.410156 97.457031 1.546875 92.46875 1.421875 86.882812 C 1.320312 82.472656 1.402344 78.0625 1.402344 73.652344 C 1.390625 73.652344 1.382812 73.652344 1.375 73.652344 Z M 1.375 73.652344 " fill-opacity="1" fill-rule="evenodd"/></g><g clip-path="url(#id16)"><path fill="#000000" d="M 44.914062 20.746094 C 44.847656 31.851562 36.183594 40.375 25.082031 40.261719 C 14.121094 40.152344 5.238281 31.199219 5.386719 20.414062 C 5.539062 9.65625 14.757812 0.589844 25.417969 0.714844 C 36.332031 0.84375 44.976562 9.722656 44.914062 20.746094 Z M 44.914062 20.746094 " fill-opacity="1" fill-rule="evenodd"/></g></g></g></g></g><g clip-path="url(#id18)"><g mask="url(#id19)"><g transform="matrix(1, 0, 0, 1, 117, 48)"><g clip-path="url(#id23)"><g clip-path="url(#id20)"><path fill="#000000" d="M 0.773438 73.652344 C 0.78125 73.652344 0.789062 73.652344 0.800781 73.652344 C 0.800781 78.0625 0.722656 82.472656 0.820312 86.882812 C 0.949219 92.46875 2.8125 97.457031 5.9375 102.117188 C 7.460938 104.390625 8.84375 107.003906 9.375 109.648438 C 11.171875 118.644531 12.554688 127.722656 14.105469 136.769531 C 14.96875 141.84375 17.097656 143.703125 22.136719 143.765625 C 24.082031 143.792969 26.03125 143.789062 27.980469 143.769531 C 32.980469 143.710938 35.324219 141.800781 36.171875 136.886719 C 37.3125 130.257812 38.164062 123.574219 39.472656 116.988281 C 40.386719 112.351562 40.824219 107.132812 43.324219 103.414062 C 47.023438 97.894531 49.386719 92.320312 49.492188 85.820312 C 49.640625 77.390625 49.5625 68.957031 49.527344 60.527344 C 49.5 54.164062 46.675781 49.425781 40.589844 47.34375 C 30.230469 43.792969 19.703125 43.796875 9.371094 47.425781 C 3.65625 49.433594 0.863281 53.960938 0.78125 60.03125 C 0.722656 64.570312 0.773438 69.109375 0.773438 73.652344 Z M 44.3125 20.746094 C 44.378906 9.722656 35.730469 0.84375 24.816406 0.714844 C 14.15625 0.589844 4.9375 9.65625 4.789062 20.414062 C 4.640625 31.199219 13.519531 40.152344 24.480469 40.261719 C 35.582031 40.375 44.246094 31.851562 44.3125 20.746094 Z M 44.3125 20.746094 " fill-opacity="1" fill-rule="nonzero"/></g><g clip-path="url(#id21)"><path fill="#000000" d="M 0.773438 73.652344 C 0.773438 69.109375 0.722656 64.570312 0.78125 60.03125 C 0.863281 53.960938 3.65625 49.429688 9.371094 47.425781 C 19.703125 43.796875 30.230469 43.792969 40.589844 47.34375 C 46.675781 49.425781 49.5 54.164062 49.527344 60.527344 C 49.5625 68.957031 49.640625 77.390625 49.492188 85.816406 C 49.386719 92.320312 47.027344 97.894531 43.324219 103.414062 C 40.824219 107.132812 40.390625 112.351562 39.476562 116.988281 C 38.167969 123.574219 37.3125 130.257812 36.171875 136.882812 C 35.324219 141.800781 32.980469 143.710938 27.980469 143.769531 C 26.03125 143.789062 24.085938 143.792969 22.136719 143.765625 C 17.097656 143.699219 14.972656 141.84375 14.105469 136.769531 C 12.558594 127.722656 11.171875 118.644531 9.375 109.648438 C 8.84375 107.003906 7.460938 104.386719 5.9375 102.117188 C 2.8125 97.457031 0.949219 92.46875 0.820312 86.882812 C 0.722656 82.472656 0.800781 78.0625 0.800781 73.652344 C 0.789062 73.652344 0.78125 73.652344 0.773438 73.652344 Z M 0.773438 73.652344 " fill-opacity="1" fill-rule="evenodd"/></g><g clip-path="url(#id22)"><path fill="#000000" d="M 44.3125 20.746094 C 44.246094 31.851562 35.582031 40.375 24.480469 40.261719 C 13.519531 40.152344 4.640625 31.199219 4.789062 20.414062 C 4.9375 9.65625 14.15625 0.589844 24.816406 0.714844 C 35.730469 0.84375 44.375 9.722656 44.3125 20.746094 Z M 44.3125 20.746094 " fill-opacity="1" fill-rule="evenodd"/></g></g></g></g></g><g clip-path="url(#id24)"><g mask="url(#id25)"><g transform="matrix(1, 0, 0, 1, 18, 48)"><g clip-path="url(#id29)"><g clip-path="url(#id26)"><path fill="#000000" d="M 0.769531 73.652344 C 0.777344 73.652344 0.789062 73.652344 0.796875 73.652344 C 0.796875 78.0625 0.71875 82.472656 0.816406 86.882812 C 0.945312 92.46875 2.804688 97.457031 5.929688 102.117188 C 7.457031 104.390625 8.84375 107.003906 9.371094 109.648438 C 11.164062 118.644531 12.554688 127.722656 14.101562 136.769531 C 14.96875 141.84375 17.09375 143.703125 22.136719 143.765625 C 24.082031 143.792969 26.027344 143.789062 27.976562 143.769531 C 32.976562 143.710938 35.320312 141.800781 36.167969 136.886719 C 37.308594 130.257812 38.160156 123.574219 39.472656 116.988281 C 40.386719 112.351562 40.820312 107.132812 43.320312 103.414062 C 47.019531 97.894531 49.382812 92.320312 49.488281 85.820312 C 49.636719 77.390625 49.558594 68.957031 49.523438 60.527344 C 49.496094 54.164062 46.671875 49.425781 40.585938 47.34375 C 30.226562 43.792969 19.699219 43.796875 9.367188 47.425781 C 3.65625 49.429688 0.859375 53.960938 0.777344 60.03125 C 0.71875 64.570312 0.769531 69.109375 0.769531 73.652344 Z M 44.308594 20.746094 C 44.375 9.722656 35.730469 0.84375 24.816406 0.714844 C 14.152344 0.589844 4.933594 9.65625 4.785156 20.414062 C 4.636719 31.199219 13.515625 40.152344 24.476562 40.261719 C 35.578125 40.375 44.242188 31.851562 44.308594 20.746094 Z M 44.308594 20.746094 " fill-opacity="1" fill-rule="nonzero"/></g><g clip-path="url(#id27)"><path fill="#000000" d="M 0.769531 73.652344 C 0.769531 69.109375 0.71875 64.570312 0.777344 60.03125 C 0.859375 53.960938 3.65625 49.429688 9.371094 47.425781 C 19.699219 43.796875 30.226562 43.792969 40.585938 47.34375 C 46.671875 49.425781 49.5 54.164062 49.523438 60.527344 C 49.558594 68.957031 49.636719 77.390625 49.492188 85.816406 C 49.382812 92.320312 47.019531 97.894531 43.320312 103.414062 C 40.820312 107.132812 40.386719 112.351562 39.472656 116.988281 C 38.164062 123.574219 37.308594 130.257812 36.167969 136.882812 C 35.320312 141.800781 32.976562 143.710938 27.976562 143.769531 C 26.03125 143.789062 24.082031 143.792969 22.136719 143.765625 C 17.097656 143.699219 14.96875 141.84375 14.101562 136.769531 C 12.554688 127.722656 11.167969 118.644531 9.375 109.648438 C 8.84375 107.003906 7.457031 104.386719 5.929688 102.117188 C 2.808594 97.457031 0.945312 92.46875 0.816406 86.882812 C 0.71875 82.472656 0.800781 78.0625 0.800781 73.652344 C 0.789062 73.652344 0.777344 73.652344 0.769531 73.652344 Z M 0.769531 73.652344 " fill-opacity="1" fill-rule="evenodd"/></g><g clip-path="url(#id28)"><path fill="#000000" d="M 44.308594 20.746094 C 44.242188 31.851562 35.578125 40.375 24.476562 40.261719 C 13.515625 40.152344 4.636719 31.199219 4.785156 20.414062 C 4.933594 9.65625 14.152344 0.589844 24.816406 0.714844 C 35.730469 0.84375 44.375 9.722656 44.308594 20.746094 Z M 44.308594 20.746094 " fill-opacity="1" fill-rule="evenodd"/></g></g></g></g></g><g clip-path="url(#id30)"><g mask="url(#id31)"><g transform="matrix(1, 0, 0, 1, 212, 48)"><g clip-path="url(#id35)"><g clip-path="url(#id32)"><path fill="#000000" d="M 0.742188 73.652344 C 0.753906 73.652344 0.765625 73.652344 0.773438 73.652344 C 0.773438 78.0625 0.695312 82.472656 0.796875 86.882812 C 0.921875 92.46875 2.78125 97.457031 5.90625 102.117188 C 7.433594 104.390625 8.820312 107.003906 9.347656 109.648438 C 11.144531 118.644531 12.527344 127.722656 14.078125 136.769531 C 14.945312 141.84375 17.070312 143.703125 22.109375 143.765625 C 24.058594 143.792969 26.003906 143.789062 27.953125 143.769531 C 32.949219 143.710938 35.300781 141.800781 36.140625 136.886719 C 37.28125 130.257812 38.136719 123.574219 39.445312 116.988281 C 40.363281 112.351562 40.796875 107.132812 43.296875 103.414062 C 46.996094 97.894531 49.351562 92.320312 49.464844 85.820312 C 49.613281 77.390625 49.539062 68.957031 49.5 60.527344 C 49.472656 54.164062 46.648438 49.425781 40.5625 47.34375 C 30.203125 43.792969 19.675781 43.796875 9.34375 47.425781 C 3.628906 49.433594 0.832031 53.960938 0.753906 60.03125 C 0.695312 64.570312 0.742188 69.109375 0.742188 73.652344 Z M 44.28125 20.746094 C 44.351562 9.722656 35.703125 0.84375 24.789062 0.714844 C 14.132812 0.589844 4.910156 9.65625 4.761719 20.414062 C 4.613281 31.199219 13.488281 40.152344 24.449219 40.261719 C 35.554688 40.375 44.21875 31.851562 44.28125 20.746094 Z M 44.28125 20.746094 " fill-opacity="1" fill-rule="nonzero"/></g><g clip-path="url(#id33)"><path fill="#000000" d="M 0.742188 73.652344 C 0.742188 69.109375 0.695312 64.570312 0.753906 60.03125 C 0.832031 53.960938 3.628906 49.429688 9.34375 47.425781 C 19.675781 43.796875 30.203125 43.792969 40.566406 47.34375 C 46.648438 49.425781 49.472656 54.164062 49.5 60.527344 C 49.539062 68.957031 49.613281 77.390625 49.464844 85.816406 C 49.355469 92.320312 46.996094 97.894531 43.296875 103.414062 C 40.800781 107.132812 40.363281 112.351562 39.445312 116.988281 C 38.136719 123.574219 37.28125 130.257812 36.144531 136.882812 C 35.300781 141.800781 32.949219 143.710938 27.957031 143.769531 C 26.007812 143.789062 24.058594 143.792969 22.109375 143.765625 C 17.070312 143.699219 14.945312 141.84375 14.078125 136.769531 C 12.527344 127.722656 11.144531 118.644531 9.347656 109.648438 C 8.820312 107.003906 7.433594 104.386719 5.90625 102.117188 C 2.78125 97.457031 0.921875 92.46875 0.796875 86.882812 C 0.695312 82.472656 0.773438 78.0625 0.773438 73.652344 C 0.765625 73.652344 0.753906 73.652344 0.742188 73.652344 Z M 0.742188 73.652344 " fill-opacity="1" fill-rule="evenodd"/></g><g clip-path="url(#id34)"><path fill="#000000" d="M 44.28125 20.746094 C 44.21875 31.851562 35.554688 40.375 24.449219 40.261719 C 13.488281 40.152344 4.613281 31.199219 4.761719 20.414062 C 4.910156 9.65625 14.132812 0.589844 24.789062 0.714844 C 35.703125 0.84375 44.347656 9.722656 44.28125 20.746094 Z M 44.28125 20.746094 " fill-opacity="1" fill-rule="evenodd"/></g></g></g></g></g><path fill="#d13f3e" d="M 271.398438 164.625 C 271.410156 164.625 271.417969 164.625 271.429688 164.625 C 271.429688 169.585938 271.339844 174.550781 271.453125 179.507812 C 271.597656 185.796875 273.691406 191.40625 277.207031 196.648438 C 278.925781 199.203125 280.480469 202.148438 281.078125 205.121094 C 283.097656 215.242188 284.65625 225.453125 286.398438 235.628906 C 287.375 241.34375 289.765625 243.429688 295.433594 243.503906 C 297.625 243.535156 299.816406 243.527344 302.007812 243.507812 C 307.628906 243.441406 310.273438 241.292969 311.222656 235.765625 C 312.503906 228.308594 313.464844 220.792969 314.9375 213.378906 C 315.964844 208.167969 316.457031 202.292969 319.269531 198.109375 C 323.429688 191.898438 326.085938 185.628906 326.210938 178.3125 C 326.375 168.832031 326.289062 159.347656 326.246094 149.859375 C 326.21875 142.703125 323.039062 137.371094 316.195312 135.027344 C 304.542969 131.039062 292.695312 131.039062 281.074219 135.121094 C 274.644531 137.378906 271.5 142.472656 271.410156 149.304688 C 271.34375 154.410156 271.398438 159.519531 271.398438 164.625 Z M 320.378906 105.105469 C 320.453125 92.703125 310.730469 82.714844 298.449219 82.574219 C 286.457031 82.433594 276.082031 92.628906 275.914062 104.734375 C 275.75 116.867188 285.738281 126.9375 298.070312 127.0625 C 310.558594 127.191406 320.308594 117.601562 320.378906 105.105469 Z M 320.378906 105.105469 " fill-opacity="1" fill-rule="nonzero"/><path fill="#d13f3e" d="M 271.398438 164.625 C 271.398438 159.519531 271.34375 154.40625 271.410156 149.300781 C 271.5 142.472656 274.644531 137.378906 281.074219 135.121094 C 292.695312 131.039062 304.542969 131.035156 316.195312 135.027344 C 323.039062 137.371094 326.21875 142.699219 326.246094 149.859375 C 326.289062 159.347656 326.375 168.828125 326.210938 178.3125 C 326.085938 185.628906 323.429688 191.898438 319.269531 198.105469 C 316.457031 202.292969 315.964844 208.167969 314.9375 213.378906 C 313.464844 220.792969 312.503906 228.304688 311.222656 235.761719 C 310.269531 241.292969 307.628906 243.441406 302.007812 243.507812 C 299.816406 243.527344 297.625 243.535156 295.433594 243.503906 C 289.765625 243.429688 287.375 241.34375 286.398438 235.628906 C 284.65625 225.453125 283.097656 215.242188 281.078125 205.121094 C 280.480469 202.144531 278.925781 199.203125 277.207031 196.648438 C 273.691406 191.40625 271.597656 185.792969 271.453125 179.507812 C 271.339844 174.550781 271.429688 169.585938 271.429688 164.625 C 271.417969 164.625 271.410156 164.625 271.398438 164.625 Z M 271.398438 164.625 " fill-opacity="1" fill-rule="evenodd"/><path fill="#d13f3e" d="M 320.378906 105.105469 C 320.308594 117.601562 310.558594 127.191406 298.070312 127.0625 C 285.738281 126.9375 275.75 116.867188 275.914062 104.734375 C 276.082031 92.628906 286.457031 82.433594 298.449219 82.574219 C 310.730469 82.714844 320.453125 92.703125 320.378906 105.105469 Z M 320.378906 105.105469 " fill-opacity="1" fill-rule="evenodd"/><path fill="#d13f3e" d="M 162.820312 164.625 C 162.832031 164.625 162.84375 164.625 162.851562 164.625 C 162.851562 169.585938 162.761719 174.550781 162.875 179.507812 C 163.015625 185.796875 165.113281 191.40625 168.628906 196.648438 C 170.347656 199.203125 171.902344 202.148438 172.496094 205.121094 C 174.519531 215.242188 176.078125 225.453125 177.820312 235.628906 C 178.792969 241.34375 181.1875 243.429688 186.855469 243.503906 C 189.046875 243.535156 191.242188 243.527344 193.429688 243.507812 C 199.050781 243.441406 201.695312 241.292969 202.640625 235.765625 C 203.925781 228.308594 204.886719 220.792969 206.359375 213.378906 C 207.390625 208.167969 207.882812 202.292969 210.691406 198.109375 C 214.855469 191.898438 217.503906 185.628906 217.628906 178.3125 C 217.796875 168.832031 217.710938 159.347656 217.671875 149.859375 C 217.640625 142.703125 214.464844 137.371094 207.617188 135.027344 C 195.964844 131.039062 184.117188 131.039062 172.5 135.121094 C 166.066406 137.378906 162.917969 142.472656 162.832031 149.304688 C 162.765625 154.410156 162.820312 159.519531 162.820312 164.625 Z M 211.800781 105.105469 C 211.878906 92.703125 202.152344 82.714844 189.871094 82.574219 C 177.878906 82.433594 167.507812 92.628906 167.339844 104.734375 C 167.171875 116.867188 177.160156 126.9375 189.488281 127.0625 C 201.984375 127.191406 211.730469 117.601562 211.800781 105.105469 Z M 211.800781 105.105469 " fill-opacity="1" fill-rule="nonzero"/><path fill="#d13f3e" d="M 162.820312 164.625 C 162.820312 159.519531 162.761719 154.40625 162.832031 149.300781 C 162.917969 142.472656 166.066406 137.378906 172.496094 135.121094 C 184.117188 131.039062 195.964844 131.035156 207.617188 135.027344 C 214.460938 137.371094 217.640625 142.699219 217.671875 149.859375 C 217.710938 159.347656 217.796875 168.828125 217.628906 178.3125 C 217.503906 185.628906 214.855469 191.898438 210.691406 198.105469 C 207.882812 202.292969 207.390625 208.167969 206.359375 213.378906 C 204.886719 220.792969 203.925781 228.304688 202.640625 235.761719 C 201.695312 241.292969 199.050781 243.441406 193.429688 243.507812 C 191.238281 243.527344 189.046875 243.535156 186.855469 243.503906 C 181.1875 243.429688 178.792969 241.34375 177.820312 235.628906 C 176.078125 225.453125 174.519531 215.242188 172.496094 205.121094 C 171.902344 202.144531 170.347656 199.203125 168.628906 196.648438 C 165.109375 191.40625 163.015625 185.792969 162.875 179.507812 C 162.761719 174.550781 162.851562 169.585938 162.851562 164.625 C 162.84375 164.625 162.832031 164.625 162.820312 164.625 Z M 162.820312 164.625 " fill-opacity="1" fill-rule="evenodd"/><path fill="#d13f3e" d="M 211.800781 105.105469 C 211.730469 117.601562 201.984375 127.191406 189.488281 127.0625 C 177.160156 126.9375 167.171875 116.867188 167.339844 104.734375 C 167.507812 92.628906 177.878906 82.433594 189.871094 82.574219 C 202.152344 82.714844 211.878906 92.703125 211.800781 105.105469 Z M 211.800781 105.105469 " fill-opacity="1" fill-rule="evenodd"/><path fill="#d13f3e" d="M 58.101562 164.625 C 58.109375 164.625 58.117188 164.625 58.132812 164.625 C 58.132812 169.585938 58.042969 174.550781 58.152344 179.507812 C 58.296875 185.796875 60.394531 191.40625 63.910156 196.648438 C 65.625 199.203125 67.179688 202.148438 67.777344 205.121094 C 69.796875 215.242188 71.355469 225.453125 73.097656 235.628906 C 74.070312 241.34375 76.464844 243.429688 82.132812 243.503906 C 84.324219 243.535156 86.515625 243.527344 88.707031 243.507812 C 94.332031 243.441406 96.96875 241.292969 97.921875 235.765625 C 99.203125 228.308594 100.164062 220.792969 101.640625 213.378906 C 102.667969 208.167969 103.15625 202.292969 105.96875 198.109375 C 110.132812 191.898438 112.785156 185.628906 112.910156 178.3125 C 113.074219 168.832031 112.988281 159.347656 112.949219 149.859375 C 112.917969 142.703125 109.742188 137.371094 102.890625 135.027344 C 91.238281 131.039062 79.394531 131.039062 67.773438 135.121094 C 61.347656 137.378906 58.199219 142.472656 58.109375 149.304688 C 58.042969 154.410156 58.101562 159.519531 58.101562 164.625 Z M 107.082031 105.105469 C 107.152344 92.703125 97.429688 82.714844 85.148438 82.574219 C 73.15625 82.433594 62.785156 92.628906 62.617188 104.734375 C 62.449219 116.867188 72.441406 126.9375 84.769531 127.0625 C 97.257812 127.191406 107.007812 117.601562 107.082031 105.105469 Z M 107.082031 105.105469 " fill-opacity="1" fill-rule="nonzero"/><path fill="#d13f3e" d="M 58.101562 164.625 C 58.101562 159.519531 58.042969 154.40625 58.109375 149.300781 C 58.199219 142.472656 61.34375 137.378906 67.773438 135.121094 C 79.394531 131.039062 91.238281 131.035156 102.890625 135.027344 C 109.742188 137.371094 112.917969 142.699219 112.949219 149.859375 C 112.988281 159.347656 113.074219 168.828125 112.910156 178.3125 C 112.785156 185.628906 110.132812 191.898438 105.96875 198.105469 C 103.15625 202.292969 102.667969 208.167969 101.640625 213.378906 C 100.164062 220.792969 99.203125 228.304688 97.921875 235.761719 C 96.96875 241.292969 94.332031 243.441406 88.707031 243.507812 C 86.515625 243.527344 84.324219 243.535156 82.132812 243.503906 C 76.464844 243.429688 74.070312 241.34375 73.097656 235.628906 C 71.355469 225.453125 69.796875 215.242188 67.777344 205.121094 C 67.179688 202.144531 65.621094 199.203125 63.910156 196.648438 C 60.394531 191.40625 58.296875 185.792969 58.152344 179.507812 C 58.042969 174.550781 58.132812 169.585938 58.132812 164.625 C 58.117188 164.625 58.109375 164.625 58.101562 164.625 Z M 58.101562 164.625 " fill-opacity="1" fill-rule="evenodd"/><path fill="#d13f3e" d="M 107.082031 105.105469 C 107.007812 117.601562 97.257812 127.191406 84.769531 127.0625 C 72.441406 126.9375 62.449219 116.867188 62.617188 104.734375 C 62.785156 92.628906 73.15625 82.433594 85.148438 82.574219 C 97.429688 82.714844 107.152344 92.703125 107.082031 105.105469 Z M 107.082031 105.105469 " fill-opacity="1" fill-rule="evenodd"/><g mask="url(#id36)"><g transform="matrix(1, 0, 0, 1, 271, 82)"><g clip-path="url(#id40)"><g clip-path="url(#id37)"><path fill="#000000" d="M 0.398438 82.625 C 0.410156 82.625 0.417969 82.625 0.429688 82.625 C 0.429688 87.585938 0.339844 92.550781 0.453125 97.507812 C 0.597656 103.796875 2.691406 109.40625 6.207031 114.648438 C 7.925781 117.203125 9.480469 120.148438 10.078125 123.121094 C 12.097656 133.242188 13.65625 143.453125 15.398438 153.628906 C 16.375 159.34375 18.765625 161.429688 24.433594 161.503906 C 26.625 161.535156 28.816406 161.527344 31.007812 161.507812 C 36.628906 161.441406 39.273438 159.292969 40.222656 153.765625 C 41.503906 146.308594 42.464844 138.792969 43.9375 131.378906 C 44.964844 126.167969 45.457031 120.292969 48.269531 116.109375 C 52.429688 109.898438 55.085938 103.628906 55.210938 96.3125 C 55.375 86.832031 55.289062 77.347656 55.246094 67.859375 C 55.21875 60.703125 52.039062 55.371094 45.195312 53.027344 C 33.542969 49.039062 21.695312 49.039062 10.074219 53.121094 C 3.644531 55.378906 0.5 60.472656 0.410156 67.304688 C 0.34375 72.410156 0.398438 77.519531 0.398438 82.625 Z M 49.378906 23.105469 C 49.453125 10.703125 39.730469 0.714844 27.449219 0.574219 C 15.457031 0.433594 5.082031 10.628906 4.914062 22.734375 C 4.75 34.867188 14.738281 44.9375 27.070312 45.0625 C 39.558594 45.191406 49.308594 35.601562 49.378906 23.105469 Z M 49.378906 23.105469 " fill-opacity="1" fill-rule="nonzero"/></g><g clip-path="url(#id38)"><path fill="#000000" d="M 0.398438 82.625 C 0.398438 77.519531 0.34375 72.40625 0.410156 67.300781 C 0.5 60.472656 3.644531 55.378906 10.074219 53.121094 C 21.695312 49.039062 33.542969 49.035156 45.195312 53.027344 C 52.039062 55.371094 55.21875 60.699219 55.246094 67.859375 C 55.289062 77.347656 55.375 86.828125 55.210938 96.3125 C 55.085938 103.628906 52.429688 109.898438 48.269531 116.105469 C 45.457031 120.292969 44.964844 126.167969 43.9375 131.378906 C 42.464844 138.792969 41.503906 146.304688 40.222656 153.761719 C 39.269531 159.292969 36.628906 161.441406 31.007812 161.507812 C 28.816406 161.527344 26.625 161.535156 24.433594 161.503906 C 18.765625 161.429688 16.375 159.34375 15.398438 153.628906 C 13.65625 143.453125 12.097656 133.242188 10.078125 123.121094 C 9.480469 120.144531 7.925781 117.203125 6.207031 114.648438 C 2.691406 109.40625 0.597656 103.792969 0.453125 97.507812 C 0.339844 92.550781 0.429688 87.585938 0.429688 82.625 C 0.417969 82.625 0.410156 82.625 0.398438 82.625 Z M 0.398438 82.625 " fill-opacity="1" fill-rule="evenodd"/></g><g clip-path="url(#id39)"><path fill="#000000" d="M 49.378906 23.105469 C 49.308594 35.601562 39.558594 45.191406 27.070312 45.0625 C 14.738281 44.9375 4.75 34.867188 4.914062 22.734375 C 5.082031 10.628906 15.457031 0.433594 27.449219 0.574219 C 39.730469 0.714844 49.453125 10.703125 49.378906 23.105469 Z M 49.378906 23.105469 " fill-opacity="1" fill-rule="evenodd"/></g></g></g></g><g mask="url(#id41)"><g transform="matrix(1, 0, 0, 1, 162, 82)"><g clip-path="url(#id45)"><g clip-path="url(#id42)"><path fill="#000000" d="M 0.820312 82.625 C 0.832031 82.625 0.84375 82.625 0.851562 82.625 C 0.851562 87.585938 0.761719 92.550781 0.875 97.507812 C 1.015625 103.796875 3.113281 109.40625 6.628906 114.648438 C 8.347656 117.203125 9.902344 120.148438 10.496094 123.121094 C 12.519531 133.242188 14.078125 143.453125 15.820312 153.628906 C 16.792969 159.34375 19.1875 161.429688 24.855469 161.503906 C 27.046875 161.535156 29.242188 161.527344 31.429688 161.507812 C 37.050781 161.441406 39.695312 159.292969 40.640625 153.765625 C 41.925781 146.308594 42.886719 138.792969 44.359375 131.378906 C 45.390625 126.167969 45.882812 120.292969 48.691406 116.109375 C 52.855469 109.898438 55.503906 103.628906 55.628906 96.3125 C 55.796875 86.832031 55.710938 77.347656 55.671875 67.859375 C 55.640625 60.703125 52.464844 55.371094 45.617188 53.027344 C 33.964844 49.039062 22.117188 49.039062 10.5 53.121094 C 4.066406 55.378906 0.917969 60.472656 0.832031 67.304688 C 0.765625 72.410156 0.820312 77.519531 0.820312 82.625 Z M 49.800781 23.105469 C 49.878906 10.703125 40.152344 0.714844 27.871094 0.574219 C 15.878906 0.433594 5.507812 10.628906 5.339844 22.734375 C 5.171875 34.867188 15.160156 44.9375 27.488281 45.0625 C 39.984375 45.191406 49.730469 35.601562 49.800781 23.105469 Z M 49.800781 23.105469 " fill-opacity="1" fill-rule="nonzero"/></g><g clip-path="url(#id43)"><path fill="#000000" d="M 0.820312 82.625 C 0.820312 77.519531 0.761719 72.40625 0.832031 67.300781 C 0.917969 60.472656 4.066406 55.378906 10.496094 53.121094 C 22.117188 49.039062 33.964844 49.035156 45.617188 53.027344 C 52.460938 55.371094 55.640625 60.699219 55.671875 67.859375 C 55.710938 77.347656 55.796875 86.828125 55.628906 96.3125 C 55.503906 103.628906 52.855469 109.898438 48.691406 116.105469 C 45.882812 120.292969 45.390625 126.167969 44.359375 131.378906 C 42.886719 138.792969 41.925781 146.304688 40.640625 153.761719 C 39.695312 159.292969 37.050781 161.441406 31.429688 161.507812 C 29.238281 161.527344 27.046875 161.535156 24.855469 161.503906 C 19.1875 161.429688 16.792969 159.34375 15.820312 153.628906 C 14.078125 143.453125 12.519531 133.242188 10.496094 123.121094 C 9.902344 120.144531 8.347656 117.203125 6.628906 114.648438 C 3.109375 109.40625 1.015625 103.792969 0.875 97.507812 C 0.761719 92.550781 0.851562 87.585938 0.851562 82.625 C 0.84375 82.625 0.832031 82.625 0.820312 82.625 Z M 0.820312 82.625 " fill-opacity="1" fill-rule="evenodd"/></g><g clip-path="url(#id44)"><path fill="#000000" d="M 49.800781 23.105469 C 49.730469 35.601562 39.984375 45.191406 27.488281 45.0625 C 15.160156 44.9375 5.171875 34.867188 5.339844 22.734375 C 5.507812 10.628906 15.878906 0.433594 27.871094 0.574219 C 40.152344 0.714844 49.878906 10.703125 49.800781 23.105469 Z M 49.800781 23.105469 " fill-opacity="1" fill-rule="evenodd"/></g></g></g></g><g mask="url(#id46)"><g transform="matrix(1, 0, 0, 1, 57, 82)"><g clip-path="url(#id50)"><g clip-path="url(#id47)"><path fill="#000000" d="M 1.101562 82.625 C 1.109375 82.625 1.117188 82.625 1.132812 82.625 C 1.132812 87.585938 1.042969 92.550781 1.152344 97.507812 C 1.296875 103.796875 3.394531 109.40625 6.910156 114.648438 C 8.625 117.203125 10.179688 120.148438 10.777344 123.121094 C 12.796875 133.242188 14.355469 143.453125 16.097656 153.628906 C 17.070312 159.34375 19.464844 161.429688 25.132812 161.503906 C 27.324219 161.535156 29.515625 161.527344 31.707031 161.507812 C 37.332031 161.441406 39.96875 159.292969 40.921875 153.765625 C 42.203125 146.308594 43.164062 138.792969 44.640625 131.378906 C 45.667969 126.167969 46.15625 120.292969 48.96875 116.109375 C 53.132812 109.898438 55.785156 103.628906 55.910156 96.3125 C 56.074219 86.832031 55.988281 77.347656 55.949219 67.859375 C 55.917969 60.703125 52.742188 55.371094 45.890625 53.027344 C 34.238281 49.039062 22.394531 49.039062 10.773438 53.121094 C 4.347656 55.378906 1.199219 60.472656 1.109375 67.304688 C 1.042969 72.410156 1.101562 77.519531 1.101562 82.625 Z M 50.082031 23.105469 C 50.152344 10.703125 40.429688 0.714844 28.148438 0.574219 C 16.15625 0.433594 5.785156 10.628906 5.617188 22.734375 C 5.449219 34.867188 15.441406 44.9375 27.769531 45.0625 C 40.257812 45.191406 50.007812 35.601562 50.082031 23.105469 Z M 50.082031 23.105469 " fill-opacity="1" fill-rule="nonzero"/></g><g clip-path="url(#id48)"><path fill="#000000" d="M 1.101562 82.625 C 1.101562 77.519531 1.042969 72.40625 1.109375 67.300781 C 1.199219 60.472656 4.34375 55.378906 10.773438 53.121094 C 22.394531 49.039062 34.238281 49.035156 45.890625 53.027344 C 52.742188 55.371094 55.917969 60.699219 55.949219 67.859375 C 55.988281 77.347656 56.074219 86.828125 55.910156 96.3125 C 55.785156 103.628906 53.132812 109.898438 48.96875 116.105469 C 46.15625 120.292969 45.667969 126.167969 44.640625 131.378906 C 43.164062 138.792969 42.203125 146.304688 40.921875 153.761719 C 39.96875 159.292969 37.332031 161.441406 31.707031 161.507812 C 29.515625 161.527344 27.324219 161.535156 25.132812 161.503906 C 19.464844 161.429688 17.070312 159.34375 16.097656 153.628906 C 14.355469 143.453125 12.796875 133.242188 10.777344 123.121094 C 10.179688 120.144531 8.621094 117.203125 6.910156 114.648438 C 3.394531 109.40625 1.296875 103.792969 1.152344 97.507812 C 1.042969 92.550781 1.132812 87.585938 1.132812 82.625 C 1.117188 82.625 1.109375 82.625 1.101562 82.625 Z M 1.101562 82.625 " fill-opacity="1" fill-rule="evenodd"/></g><g clip-path="url(#id49)"><path fill="#000000" d="M 50.082031 23.105469 C 50.007812 35.601562 40.257812 45.191406 27.769531 45.0625 C 15.441406 44.9375 5.449219 34.867188 5.617188 22.734375 C 5.785156 10.628906 16.15625 0.433594 28.148438 0.574219 C 40.429688 0.714844 50.152344 10.703125 50.082031 23.105469 Z M 50.082031 23.105469 " fill-opacity="1" fill-rule="evenodd"/></g></g></g></g><path fill="#d13f3e" d="M 219.164062 207.601562 C 219.175781 207.601562 219.1875 207.601562 219.199219 207.601562 C 219.199219 213.109375 219.101562 218.625 219.226562 224.136719 C 219.382812 231.121094 221.710938 237.355469 225.617188 243.179688 C 227.523438 246.019531 229.253906 249.289062 229.921875 252.59375 C 232.164062 263.839844 233.894531 275.1875 235.828125 286.492188 C 236.914062 292.839844 239.570312 295.160156 245.871094 295.242188 C 248.304688 295.277344 250.738281 295.269531 253.175781 295.246094 C 259.421875 295.171875 262.355469 292.785156 263.410156 286.640625 C 264.835938 278.355469 265.90625 270.007812 267.542969 261.769531 C 268.683594 255.976562 269.230469 249.453125 272.351562 244.800781 C 276.980469 237.902344 279.929688 230.9375 280.066406 222.808594 C 280.25 212.273438 280.152344 201.734375 280.109375 191.195312 C 280.074219 183.238281 276.542969 177.316406 268.933594 174.714844 C 255.988281 170.277344 242.824219 170.28125 229.914062 174.816406 C 222.769531 177.324219 219.277344 182.984375 219.175781 190.578125 C 219.101562 196.246094 219.164062 201.925781 219.164062 207.601562 Z M 273.589844 141.464844 C 273.671875 127.691406 262.863281 116.589844 249.21875 116.429688 C 235.894531 116.273438 224.371094 127.605469 224.183594 141.054688 C 224 154.535156 235.097656 165.726562 248.800781 165.863281 C 262.675781 166.007812 273.507812 155.347656 273.589844 141.464844 Z M 273.589844 141.464844 " fill-opacity="1" fill-rule="nonzero"/><path fill="#d13f3e" d="M 219.164062 207.601562 C 219.164062 201.925781 219.101562 196.246094 219.175781 190.574219 C 219.277344 182.984375 222.769531 177.324219 229.914062 174.816406 C 242.824219 170.28125 255.988281 170.277344 268.933594 174.714844 C 276.542969 177.316406 280.074219 183.238281 280.109375 191.191406 C 280.152344 201.734375 280.25 212.273438 280.066406 222.808594 C 279.929688 230.9375 276.980469 237.902344 272.351562 244.800781 C 269.230469 249.453125 268.6875 255.976562 267.542969 261.769531 C 265.90625 270.003906 264.835938 278.355469 263.410156 286.640625 C 262.355469 292.785156 259.421875 295.171875 253.175781 295.246094 C 250.738281 295.269531 248.304688 295.273438 245.871094 295.242188 C 239.570312 295.160156 236.914062 292.839844 235.828125 286.492188 C 233.894531 275.1875 232.164062 263.839844 229.921875 252.59375 C 229.253906 249.289062 227.523438 246.019531 225.617188 243.179688 C 221.714844 237.355469 219.382812 231.121094 219.226562 224.136719 C 219.101562 218.625 219.199219 213.109375 219.199219 207.601562 C 219.1875 207.601562 219.175781 207.601562 219.164062 207.601562 Z M 219.164062 207.601562 " fill-opacity="1" fill-rule="evenodd"/><path fill="#d13f3e" d="M 273.589844 141.464844 C 273.507812 155.347656 262.675781 166.007812 248.796875 165.863281 C 235.097656 165.726562 224 154.535156 224.183594 141.054688 C 224.371094 127.605469 235.894531 116.273438 249.21875 116.429688 C 262.863281 116.589844 273.671875 127.691406 273.589844 141.464844 Z M 273.589844 141.464844 " fill-opacity="1" fill-rule="evenodd"/><path fill="#d13f3e" d="M 100.878906 207.601562 C 100.894531 207.601562 100.90625 207.601562 100.917969 207.601562 C 100.917969 213.109375 100.820312 218.625 100.945312 224.136719 C 101.101562 231.121094 103.429688 237.355469 107.332031 243.179688 C 109.242188 246.019531 110.972656 249.289062 111.636719 252.59375 C 113.878906 263.839844 115.609375 275.1875 117.546875 286.492188 C 118.632812 292.839844 121.289062 295.160156 127.589844 295.242188 C 130.023438 295.277344 132.457031 295.269531 134.890625 295.246094 C 141.140625 295.171875 144.074219 292.785156 145.128906 286.640625 C 146.554688 278.355469 147.621094 270.007812 149.257812 261.769531 C 150.402344 255.976562 150.949219 249.453125 154.070312 244.800781 C 158.695312 237.902344 161.644531 230.9375 161.78125 222.808594 C 161.964844 212.273438 161.871094 201.734375 161.824219 191.195312 C 161.789062 183.238281 158.261719 177.316406 150.65625 174.714844 C 137.707031 170.277344 124.542969 170.28125 111.632812 174.816406 C 104.488281 177.324219 100.992188 182.984375 100.894531 190.578125 C 100.820312 196.246094 100.878906 201.925781 100.878906 207.601562 Z M 155.304688 141.464844 C 155.386719 127.691406 144.582031 116.589844 130.9375 116.429688 C 117.613281 116.273438 106.085938 127.605469 105.902344 141.054688 C 105.71875 154.535156 116.8125 165.726562 130.515625 165.863281 C 144.394531 166.007812 155.222656 155.347656 155.304688 141.464844 Z M 155.304688 141.464844 " fill-opacity="1" fill-rule="nonzero"/><path fill="#d13f3e" d="M 100.878906 207.601562 C 100.878906 201.925781 100.820312 196.246094 100.894531 190.574219 C 100.992188 182.984375 104.488281 177.324219 111.632812 174.816406 C 124.542969 170.28125 137.707031 170.277344 150.65625 174.714844 C 158.261719 177.316406 161.789062 183.238281 161.824219 191.191406 C 161.871094 201.734375 161.964844 212.273438 161.78125 222.808594 C 161.644531 230.9375 158.695312 237.902344 154.070312 244.800781 C 150.949219 249.453125 150.402344 255.976562 149.257812 261.769531 C 147.621094 270.003906 146.554688 278.355469 145.128906 286.640625 C 144.074219 292.785156 141.140625 295.171875 134.890625 295.246094 C 132.457031 295.269531 130.023438 295.273438 127.589844 295.242188 C 121.289062 295.160156 118.632812 292.839844 117.546875 286.492188 C 115.609375 275.1875 113.878906 263.839844 111.636719 252.59375 C 110.972656 249.289062 109.242188 246.019531 107.332031 243.179688 C 103.429688 237.355469 101.101562 231.121094 100.945312 224.136719 C 100.820312 218.625 100.917969 213.109375 100.917969 207.601562 C 100.90625 207.601562 100.894531 207.601562 100.878906 207.601562 Z M 100.878906 207.601562 " fill-opacity="1" fill-rule="evenodd"/><path fill="#d13f3e" d="M 155.304688 141.464844 C 155.226562 155.347656 144.394531 166.007812 130.515625 165.863281 C 116.8125 165.726562 105.714844 154.535156 105.902344 141.054688 C 106.085938 127.605469 117.613281 116.273438 130.9375 116.429688 C 144.582031 116.589844 155.386719 127.691406 155.304688 141.464844 Z M 155.304688 141.464844 " fill-opacity="1" fill-rule="evenodd"/><g mask="url(#id51)"><g transform="matrix(1, 0, 0, 1, 218, 116)"><g clip-path="url(#id55)"><g clip-path="url(#id52)"><path fill="#000000" d="M 1.164062 91.601562 C 1.175781 91.601562 1.1875 91.601562 1.199219 91.601562 C 1.199219 97.109375 1.101562 102.625 1.226562 108.136719 C 1.382812 115.121094 3.710938 121.355469 7.617188 127.179688 C 9.523438 130.019531 11.253906 133.289062 11.921875 136.59375 C 14.164062 147.839844 15.894531 159.1875 17.828125 170.492188 C 18.914062 176.839844 21.570312 179.160156 27.871094 179.242188 C 30.304688 179.277344 32.738281 179.269531 35.175781 179.246094 C 41.421875 179.171875 44.355469 176.785156 45.410156 170.640625 C 46.835938 162.355469 47.90625 154.007812 49.542969 145.769531 C 50.683594 139.976562 51.230469 133.453125 54.351562 128.800781 C 58.980469 121.902344 61.929688 114.9375 62.066406 106.808594 C 62.25 96.273438 62.152344 85.734375 62.109375 75.195312 C 62.074219 67.238281 58.542969 61.316406 50.933594 58.714844 C 37.988281 54.277344 24.824219 54.28125 11.914062 58.816406 C 4.769531 61.324219 1.277344 66.984375 1.175781 74.578125 C 1.101562 80.246094 1.164062 85.925781 1.164062 91.601562 Z M 55.589844 25.464844 C 55.671875 11.691406 44.863281 0.589844 31.21875 0.429688 C 17.894531 0.273438 6.371094 11.605469 6.183594 25.054688 C 6 38.535156 17.097656 49.726562 30.800781 49.863281 C 44.675781 50.007812 55.507812 39.347656 55.589844 25.464844 Z M 55.589844 25.464844 " fill-opacity="1" fill-rule="nonzero"/></g><g clip-path="url(#id53)"><path fill="#000000" d="M 1.164062 91.601562 C 1.164062 85.925781 1.101562 80.246094 1.175781 74.574219 C 1.277344 66.984375 4.769531 61.324219 11.914062 58.816406 C 24.824219 54.28125 37.988281 54.277344 50.933594 58.714844 C 58.542969 61.316406 62.074219 67.238281 62.109375 75.191406 C 62.152344 85.734375 62.25 96.273438 62.066406 106.808594 C 61.929688 114.9375 58.980469 121.902344 54.351562 128.800781 C 51.230469 133.453125 50.6875 139.976562 49.542969 145.769531 C 47.90625 154.003906 46.835938 162.355469 45.410156 170.640625 C 44.355469 176.785156 41.421875 179.171875 35.175781 179.246094 C 32.738281 179.269531 30.304688 179.273438 27.871094 179.242188 C 21.570312 179.160156 18.914062 176.839844 17.828125 170.492188 C 15.894531 159.1875 14.164062 147.839844 11.921875 136.59375 C 11.253906 133.289062 9.523438 130.019531 7.617188 127.179688 C 3.714844 121.355469 1.382812 115.121094 1.226562 108.136719 C 1.101562 102.625 1.199219 97.109375 1.199219 91.601562 C 1.1875 91.601562 1.175781 91.601562 1.164062 91.601562 Z M 1.164062 91.601562 " fill-opacity="1" fill-rule="evenodd"/></g><g clip-path="url(#id54)"><path fill="#000000" d="M 55.589844 25.464844 C 55.507812 39.347656 44.675781 50.007812 30.796875 49.863281 C 17.097656 49.726562 6 38.535156 6.183594 25.054688 C 6.371094 11.605469 17.894531 0.273438 31.21875 0.429688 C 44.863281 0.589844 55.671875 11.691406 55.589844 25.464844 Z M 55.589844 25.464844 " fill-opacity="1" fill-rule="evenodd"/></g></g></g></g><g mask="url(#id56)"><g transform="matrix(1, 0, 0, 1, 100, 116)"><g clip-path="url(#id60)"><g clip-path="url(#id57)"><path fill="#000000" d="M 0.878906 91.601562 C 0.894531 91.601562 0.90625 91.601562 0.917969 91.601562 C 0.917969 97.109375 0.820312 102.625 0.945312 108.136719 C 1.101562 115.121094 3.429688 121.355469 7.332031 127.179688 C 9.242188 130.019531 10.972656 133.289062 11.636719 136.59375 C 13.878906 147.839844 15.609375 159.1875 17.546875 170.492188 C 18.632812 176.839844 21.289062 179.160156 27.589844 179.242188 C 30.023438 179.277344 32.457031 179.269531 34.890625 179.246094 C 41.140625 179.171875 44.074219 176.785156 45.128906 170.640625 C 46.554688 162.355469 47.621094 154.007812 49.257812 145.769531 C 50.402344 139.976562 50.949219 133.453125 54.070312 128.800781 C 58.695312 121.902344 61.644531 114.9375 61.78125 106.808594 C 61.964844 96.273438 61.871094 85.734375 61.824219 75.195312 C 61.789062 67.238281 58.261719 61.316406 50.65625 58.714844 C 37.707031 54.277344 24.542969 54.28125 11.632812 58.816406 C 4.488281 61.324219 0.992188 66.984375 0.894531 74.578125 C 0.820312 80.246094 0.878906 85.925781 0.878906 91.601562 Z M 55.304688 25.464844 C 55.386719 11.691406 44.582031 0.589844 30.9375 0.429688 C 17.613281 0.273438 6.085938 11.605469 5.902344 25.054688 C 5.71875 38.535156 16.8125 49.726562 30.515625 49.863281 C 44.394531 50.007812 55.222656 39.347656 55.304688 25.464844 Z M 55.304688 25.464844 " fill-opacity="1" fill-rule="nonzero"/></g><g clip-path="url(#id58)"><path fill="#000000" d="M 0.878906 91.601562 C 0.878906 85.925781 0.820312 80.246094 0.894531 74.574219 C 0.992188 66.984375 4.488281 61.324219 11.632812 58.816406 C 24.542969 54.28125 37.707031 54.277344 50.65625 58.714844 C 58.261719 61.316406 61.789062 67.238281 61.824219 75.191406 C 61.871094 85.734375 61.964844 96.273438 61.78125 106.808594 C 61.644531 114.9375 58.695312 121.902344 54.070312 128.800781 C 50.949219 133.453125 50.402344 139.976562 49.257812 145.769531 C 47.621094 154.003906 46.554688 162.355469 45.128906 170.640625 C 44.074219 176.785156 41.140625 179.171875 34.890625 179.246094 C 32.457031 179.269531 30.023438 179.273438 27.589844 179.242188 C 21.289062 179.160156 18.632812 176.839844 17.546875 170.492188 C 15.609375 159.1875 13.878906 147.839844 11.636719 136.59375 C 10.972656 133.289062 9.242188 130.019531 7.332031 127.179688 C 3.429688 121.355469 1.101562 115.121094 0.945312 108.136719 C 0.820312 102.625 0.917969 97.109375 0.917969 91.601562 C 0.90625 91.601562 0.894531 91.601562 0.878906 91.601562 Z M 0.878906 91.601562 " fill-opacity="1" fill-rule="evenodd"/></g><g clip-path="url(#id59)"><path fill="#000000" d="M 55.304688 25.464844 C 55.226562 39.347656 44.394531 50.007812 30.515625 49.863281 C 16.8125 49.726562 5.714844 38.535156 5.902344 25.054688 C 6.085938 11.605469 17.613281 0.273438 30.9375 0.429688 C 44.582031 0.589844 55.386719 11.691406 55.304688 25.464844 Z M 55.304688 25.464844 " fill-opacity="1" fill-rule="evenodd"/></g></g></g></g><g clip-path="url(#id61)"><path fill="#d13f3e" d="M 154.53125 239.773438 C 154.542969 239.773438 154.554688 239.773438 154.570312 239.773438 C 154.570312 245.894531 154.460938 252.023438 154.597656 258.148438 C 154.773438 265.90625 157.359375 272.835938 161.699219 279.304688 C 163.820312 282.460938 165.746094 286.09375 166.480469 289.769531 C 168.976562 302.261719 170.898438 314.867188 173.046875 327.433594 C 174.25 334.484375 177.207031 337.0625 184.203125 337.152344 C 186.910156 337.1875 189.613281 337.1875 192.320312 337.15625 C 199.261719 337.078125 202.523438 334.421875 203.695312 327.59375 C 205.28125 318.390625 206.464844 309.113281 208.28125 299.960938 C 209.554688 293.523438 210.160156 286.277344 213.628906 281.109375 C 218.769531 273.445312 222.042969 265.703125 222.199219 256.671875 C 222.402344 244.964844 222.296875 233.253906 222.246094 221.542969 C 222.207031 212.703125 218.285156 206.125 209.835938 203.230469 C 195.449219 198.300781 180.824219 198.308594 166.476562 203.347656 C 158.539062 206.132812 154.65625 212.421875 154.542969 220.855469 C 154.460938 227.160156 154.53125 233.46875 154.53125 239.773438 Z M 215 166.289062 C 215.09375 150.984375 203.085938 138.648438 187.925781 138.472656 C 173.121094 138.296875 160.316406 150.890625 160.109375 165.832031 C 159.902344 180.8125 172.234375 193.246094 187.457031 193.398438 C 202.878906 193.554688 214.910156 181.714844 215 166.289062 Z M 215 166.289062 " fill-opacity="1" fill-rule="nonzero"/></g><g clip-path="url(#id62)"><path fill="#d13f3e" d="M 154.53125 239.773438 C 154.53125 233.46875 154.460938 227.160156 154.542969 220.855469 C 154.65625 212.421875 158.539062 206.132812 166.476562 203.347656 C 180.824219 198.308594 195.449219 198.300781 209.835938 203.230469 C 218.285156 206.125 222.207031 212.703125 222.246094 221.542969 C 222.296875 233.253906 222.402344 244.964844 222.199219 256.671875 C 222.046875 265.703125 218.769531 273.445312 213.628906 281.109375 C 210.164062 286.277344 209.554688 293.523438 208.28125 299.960938 C 206.464844 309.113281 205.28125 318.390625 203.695312 327.59375 C 202.523438 334.421875 199.261719 337.078125 192.320312 337.15625 C 189.613281 337.1875 186.910156 337.1875 184.203125 337.152344 C 177.207031 337.0625 174.25 334.484375 173.046875 327.433594 C 170.898438 314.867188 168.976562 302.261719 166.480469 289.769531 C 165.746094 286.09375 163.820312 282.460938 161.703125 279.304688 C 157.363281 272.835938 154.773438 265.90625 154.601562 258.144531 C 154.460938 252.023438 154.574219 245.894531 154.574219 239.773438 C 154.554688 239.773438 154.542969 239.773438 154.53125 239.773438 Z M 154.53125 239.773438 " fill-opacity="1" fill-rule="evenodd"/></g><path fill="#d13f3e" d="M 215 166.289062 C 214.910156 181.714844 202.878906 193.554688 187.457031 193.398438 C 172.234375 193.242188 159.902344 180.8125 160.109375 165.832031 C 160.316406 150.890625 173.121094 138.296875 187.925781 138.472656 C 203.085938 138.648438 215.09375 150.984375 215 166.289062 Z M 215 166.289062 " fill-opacity="1" fill-rule="evenodd"/><g clip-path="url(#id63)"><g mask="url(#id64)"><g transform="matrix(1, 0, 0, 1, 153, 138)"><g clip-path="url(#id68)"><g clip-path="url(#id65)"><path fill="#ffffff" d="M 1.53125 101.773438 C 1.542969 101.773438 1.554688 101.773438 1.570312 101.773438 C 1.570312 107.894531 1.460938 114.023438 1.597656 120.148438 C 1.773438 127.90625 4.359375 134.835938 8.699219 141.304688 C 10.820312 144.460938 12.746094 148.09375 13.480469 151.769531 C 15.976562 164.261719 17.898438 176.867188 20.046875 189.433594 C 21.25 196.484375 24.207031 199.0625 31.203125 199.152344 C 33.910156 199.1875 36.613281 199.1875 39.320312 199.15625 C 46.261719 199.078125 49.523438 196.421875 50.695312 189.59375 C 52.28125 180.390625 53.464844 171.113281 55.28125 161.960938 C 56.554688 155.523438 57.160156 148.277344 60.628906 143.109375 C 65.769531 135.445312 69.042969 127.703125 69.199219 118.671875 C 69.402344 106.964844 69.296875 95.253906 69.246094 83.542969 C 69.207031 74.703125 65.285156 68.125 56.835938 65.230469 C 42.449219 60.300781 27.824219 60.308594 13.476562 65.347656 C 5.539062 68.132812 1.65625 74.421875 1.542969 82.855469 C 1.460938 89.160156 1.53125 95.46875 1.53125 101.773438 Z M 62 28.289062 C 62.09375 12.984375 50.085938 0.648438 34.925781 0.472656 C 20.121094 0.296875 7.316406 12.890625 7.109375 27.832031 C 6.902344 42.8125 19.234375 55.246094 34.457031 55.398438 C 49.878906 55.554688 61.910156 43.714844 62 28.289062 Z M 62 28.289062 " fill-opacity="1" fill-rule="nonzero"/></g><g clip-path="url(#id66)"><path fill="#ffffff" d="M 1.53125 101.773438 C 1.53125 95.46875 1.460938 89.160156 1.542969 82.855469 C 1.65625 74.421875 5.539062 68.132812 13.476562 65.347656 C 27.824219 60.308594 42.449219 60.300781 56.835938 65.230469 C 65.285156 68.125 69.207031 74.703125 69.246094 83.542969 C 69.296875 95.253906 69.402344 106.964844 69.199219 118.671875 C 69.046875 127.703125 65.769531 135.445312 60.628906 143.109375 C 57.164062 148.277344 56.554688 155.523438 55.28125 161.960938 C 53.464844 171.113281 52.28125 180.390625 50.695312 189.59375 C 49.523438 196.421875 46.261719 199.078125 39.320312 199.15625 C 36.613281 199.1875 33.910156 199.1875 31.203125 199.152344 C 24.207031 199.0625 21.25 196.484375 20.046875 189.433594 C 17.898438 176.867188 15.976562 164.261719 13.480469 151.769531 C 12.746094 148.09375 10.820312 144.460938 8.703125 141.304688 C 4.363281 134.835938 1.773438 127.90625 1.601562 120.144531 C 1.460938 114.023438 1.574219 107.894531 1.574219 101.773438 C 1.554688 101.773438 1.542969 101.773438 1.53125 101.773438 Z M 1.53125 101.773438 " fill-opacity="1" fill-rule="evenodd"/></g><g clip-path="url(#id67)"><path fill="#ffffff" d="M 62 28.289062 C 61.910156 43.714844 49.878906 55.554688 34.457031 55.398438 C 19.234375 55.242188 6.902344 42.8125 7.109375 27.832031 C 7.316406 12.890625 20.121094 0.296875 34.925781 0.472656 C 50.085938 0.648438 62.09375 12.984375 62 28.289062 Z M 62 28.289062 " fill-opacity="1" fill-rule="evenodd"/></g></g></g></g></g></svg>