<svg xmlns="http://www.w3.org/2000/svg" xmlns:xlink="http://www.w3.org/1999/xlink" width="500" zoomAndPan="magnify" viewBox="0 0 375 374.999991" height="500" preserveAspectRatio="xMidYMid meet" version="1.0"><defs><filter x="0%" y="0%" width="100%" height="100%" id="id1"><feColorMatrix values="0 0 0 0 1 0 0 0 0 1 0 0 0 0 1 0 0 0 1 0" color-interpolation-filters="sRGB"/></filter><mask id="id2"><g filter="url(#id1)"><rect x="-37.5" width="450" fill="#000000" y="-37.499999" height="449.999989" fill-opacity="0.9569"/></g></mask><clipPath id="id3"><path d="M 0.558594 0.0390625 L 342.320312 0.0390625 L 342.320312 341.851562 L 0.558594 341.851562 Z M 0.558594 0.0390625 " clip-rule="nonzero"/></clipPath><clipPath id="id4"><rect x="0" width="343" y="0" height="343"/></clipPath></defs><g mask="url(#id2)"><g transform="matrix(1, 0, 0, 1, 16, 17)"><g clip-path="url(#id4)"><path fill="#391804" d="M 313.816406 45.789062 C 313.769531 45.789062 313.722656 45.800781 313.679688 45.800781 C 307.425781 45.839844 301.773438 48.390625 297.679688 52.496094 C 297.589844 52.585938 297.527344 52.703125 297.433594 52.792969 C 296.519531 53.742188 295.660156 54.757812 294.914062 55.855469 C 294.695312 56.175781 294.558594 56.539062 294.359375 56.867188 C 293.804688 57.792969 293.246094 58.714844 292.824219 59.714844 C 292.539062 60.386719 292.390625 61.117188 292.167969 61.820312 C 291.945312 62.539062 291.652344 63.234375 291.503906 63.980469 C 291.199219 65.460938 291.042969 66.992188 291.042969 68.5625 C 291.042969 115.261719 269.480469 159.347656 232.613281 188.019531 L 188.558594 222.289062 L 227.292969 166.34375 C 234.53125 155.878906 233.257812 141.730469 224.261719 132.734375 C 213.980469 122.453125 197.304688 122.453125 187.019531 132.734375 L 114.945312 204.804688 C 112.75 207 110.664062 209.285156 108.636719 211.609375 C 108.183594 212.132812 107.734375 212.648438 107.28125 213.179688 C 105.277344 215.546875 103.332031 217.957031 101.503906 220.445312 C 99.535156 223.121094 97.6875 225.875 95.925781 228.675781 C 95.632812 229.132812 95.34375 229.582031 95.058594 230.042969 C 93.367188 232.796875 91.773438 235.601562 90.28125 238.464844 C 90.046875 238.90625 89.832031 239.363281 89.605469 239.8125 C 88.1875 242.609375 86.847656 245.4375 85.628906 248.324219 C 85.539062 248.535156 85.441406 248.742188 85.355469 248.945312 C 84.105469 251.933594 82.988281 254.976562 81.953125 258.042969 C 81.746094 258.640625 81.546875 259.246094 81.355469 259.847656 C 80.371094 262.90625 79.46875 265.992188 78.703125 269.113281 C 78.609375 269.46875 78.542969 269.835938 78.457031 270.199219 C 77.761719 273.121094 77.171875 276.074219 76.664062 279.042969 C 76.570312 279.578125 76.46875 280.113281 76.382812 280.652344 C 75.890625 283.789062 75.511719 286.949219 75.238281 290.132812 C 75.183594 290.796875 75.136719 291.464844 75.09375 292.132812 C 74.847656 295.40625 74.6875 298.691406 74.6875 301.996094 L 228.414062 301.996094 L 241.523438 289.574219 C 302.210938 232.082031 336.589844 152.160156 336.589844 68.5625 C 336.589844 55.988281 326.390625 45.789062 313.816406 45.789062 Z M 313.816406 45.789062 " fill-opacity="1" fill-rule="nonzero"/><path fill="#000000" d="M 74.6875 336.160156 L 239.800781 336.160156 L 239.800781 301.996094 L 74.6875 301.996094 Z M 74.6875 336.160156 " fill-opacity="1" fill-rule="nonzero"/><path fill="#d13f3e" d="M 249.347656 6.027344 C 203.570312 3.867188 165.785156 40.347656 165.785156 85.644531 C 165.785156 40.347656 127.996094 3.867188 82.21875 6.027344 C 39.347656 8.042969 6.367188 44.976562 6.367188 87.894531 C 6.367188 125.929688 24.164062 161.773438 54.46875 184.761719 L 101.503906 220.445312 C 103.335938 217.957031 105.277344 215.546875 107.28125 213.179688 C 107.726562 212.648438 108.183594 212.132812 108.636719 211.609375 C 110.671875 209.285156 112.75 206.996094 114.945312 204.804688 L 187.015625 132.734375 C 197.296875 122.453125 213.972656 122.453125 224.257812 132.734375 C 233.257812 141.738281 234.53125 155.878906 227.285156 166.34375 L 188.558594 222.289062 L 232.613281 188.019531 C 269.480469 159.347656 291.042969 115.261719 291.042969 68.5625 C 291.042969 66.992188 291.199219 65.460938 291.503906 63.980469 C 291.65625 63.230469 291.945312 62.539062 292.167969 61.820312 C 292.386719 61.121094 292.539062 60.386719 292.824219 59.714844 C 293.246094 58.714844 293.808594 57.792969 294.359375 56.867188 C 294.558594 56.539062 294.695312 56.175781 294.914062 55.855469 C 295.652344 54.757812 296.511719 53.742188 297.433594 52.792969 C 297.527344 52.703125 297.589844 52.585938 297.679688 52.496094 C 301.773438 48.386719 307.425781 45.839844 313.679688 45.800781 C 313.691406 45.800781 313.703125 45.796875 313.714844 45.796875 C 300.488281 23.203125 277.007812 7.328125 249.347656 6.027344 Z M 249.347656 6.027344 " fill-opacity="1" fill-rule="nonzero"/><path fill="#000000" d="M 40.527344 301.996094 L 29.140625 301.996094 L 29.140625 336.160156 L 74.6875 336.160156 L 74.6875 301.996094 Z M 40.527344 301.996094 " fill-opacity="1" fill-rule="nonzero"/><path fill="#391804" d="M 75.085938 292.125 C 75.132812 291.460938 75.175781 290.792969 75.234375 290.125 C 75.507812 286.949219 75.882812 283.785156 76.378906 280.648438 C 76.464844 280.105469 76.566406 279.578125 76.65625 279.035156 C 77.160156 276.0625 77.75 273.113281 78.449219 270.195312 C 78.535156 269.835938 78.605469 269.464844 78.695312 269.105469 C 79.464844 265.980469 80.363281 262.898438 81.347656 259.84375 C 81.542969 259.238281 81.742188 258.636719 81.945312 258.039062 C 82.984375 254.96875 84.097656 251.929688 85.351562 248.941406 C 85.4375 248.730469 85.539062 248.523438 85.625 248.320312 C 86.847656 245.4375 88.179688 242.601562 89.597656 239.808594 C 89.828125 239.359375 90.042969 238.902344 90.277344 238.457031 C 91.769531 235.601562 93.363281 232.792969 95.054688 230.039062 C 95.339844 229.574219 95.628906 229.125 95.917969 228.671875 C 97.683594 225.871094 99.527344 223.113281 101.5 220.4375 L 71.40625 197.613281 C 51.359375 228.683594 40.527344 264.875 40.527344 301.996094 L 74.6875 301.996094 C 74.6875 298.691406 74.847656 295.40625 75.085938 292.125 Z M 75.085938 292.125 " fill-opacity="1" fill-rule="nonzero"/><g clip-path="url(#id3)"><path fill="#000000" d="M 317.0625 40.425781 C 302.023438 16.570312 277.039062 1.628906 249.617188 0.34375 C 225.949219 -0.765625 203.605469 7.582031 186.554688 23.847656 C 177.269531 32.699219 170.246094 43.238281 165.785156 54.800781 C 161.320312 43.238281 154.300781 32.699219 145.019531 23.839844 C 127.960938 7.570312 105.5 -0.761719 81.957031 0.339844 C 36.375 2.484375 0.671875 40.945312 0.671875 87.898438 C 0.671875 127.472656 19.496094 165.382812 51.023438 189.304688 L 63.921875 199.085938 C 45.933594 228.613281 36.027344 261.984375 35.039062 296.304688 L 29.140625 296.304688 C 25.992188 296.304688 23.445312 298.855469 23.445312 301.996094 L 23.445312 336.160156 C 23.445312 339.300781 25.992188 341.851562 29.140625 341.851562 L 239.800781 341.851562 C 242.949219 341.851562 245.492188 339.300781 245.492188 336.160156 L 245.492188 301.996094 C 245.492188 299.691406 244.109375 297.726562 242.140625 296.832031 L 245.4375 293.707031 C 306.984375 235.402344 342.28125 153.339844 342.28125 68.5625 C 342.28125 53.976562 331.214844 42.054688 317.0625 40.425781 Z M 12.058594 87.898438 C 12.058594 47.035156 42.996094 13.574219 82.488281 11.71875 C 103.011719 10.730469 122.382812 17.988281 137.15625 32.085938 C 151.941406 46.1875 160.089844 65.210938 160.089844 85.644531 C 160.089844 88.785156 162.636719 91.335938 165.785156 91.335938 C 168.933594 91.335938 171.476562 88.785156 171.476562 85.644531 C 171.476562 65.210938 179.625 46.1875 194.410156 32.078125 C 209.191406 17.976562 228.566406 10.71875 249.082031 11.714844 C 270.941406 12.742188 291.011719 23.886719 304.238281 41.871094 C 293.261719 45.824219 285.347656 56.242188 285.347656 68.5625 C 285.347656 113.832031 264.851562 155.738281 229.117188 183.527344 L 214.378906 194.992188 L 231.972656 169.589844 C 240.789062 156.851562 239.234375 139.664062 228.289062 128.710938 C 215.800781 116.222656 195.480469 116.230469 182.996094 128.710938 L 110.921875 200.777344 C 107.1875 204.511719 103.707031 208.4375 100.4375 212.496094 L 57.902344 180.230469 C 29.203125 158.445312 12.058594 123.933594 12.058594 87.898438 Z M 73.035156 206 L 93.652344 221.640625 C 78.679688 243.621094 70.179688 269.300781 69.128906 296.304688 L 46.425781 296.304688 C 47.402344 264.464844 56.53125 233.5 73.035156 206 Z M 34.832031 307.691406 L 68.992188 307.691406 L 68.992188 330.464844 L 34.832031 330.464844 Z M 234.105469 330.464844 L 80.382812 330.464844 L 80.382812 307.691406 L 234.105469 307.691406 Z M 237.609375 285.441406 L 226.148438 296.304688 L 80.660156 296.304688 C 82.0625 263.257812 95.441406 232.367188 118.976562 208.828125 L 191.046875 136.761719 C 199.097656 128.714844 212.1875 128.714844 220.238281 136.761719 C 227.296875 143.820312 228.292969 154.898438 222.609375 163.105469 L 183.878906 219.050781 C 182.277344 221.359375 182.601562 224.496094 184.648438 226.425781 C 186.695312 228.359375 189.839844 228.511719 192.058594 226.785156 L 236.117188 192.515625 C 274.636719 162.546875 296.734375 117.367188 296.734375 68.5625 C 296.734375 59.144531 304.398438 51.484375 313.816406 51.484375 C 323.234375 51.484375 330.894531 59.144531 330.894531 68.5625 C 330.894531 150.226562 296.894531 229.273438 237.609375 285.441406 Z M 237.609375 285.441406 " fill-opacity="1" fill-rule="nonzero"/></g><path fill="#000000" d="M 29.140625 79.949219 L 40.527344 79.949219 C 40.527344 54.835938 60.960938 34.402344 86.074219 34.402344 L 86.074219 23.015625 C 54.679688 23.015625 29.140625 48.554688 29.140625 79.949219 Z M 29.140625 79.949219 " fill-opacity="1" fill-rule="nonzero"/><path fill="#000000" d="M 29.140625 91.335938 L 40.527344 91.335938 L 40.527344 102.722656 L 29.140625 102.722656 Z M 29.140625 91.335938 " fill-opacity="1" fill-rule="nonzero"/></g></g></g></svg>