<svg xmlns="http://www.w3.org/2000/svg" xmlns:xlink="http://www.w3.org/1999/xlink" width="500" zoomAndPan="magnify" viewBox="0 0 375 374.999991" height="500" preserveAspectRatio="xMidYMid meet" version="1.0"><defs><clipPath id="id1"><path d="M 39 35 L 359.765625 35 L 359.765625 356 L 39 356 Z M 39 35 " clip-rule="nonzero"/></clipPath></defs><g clip-path="url(#id1)"><path fill="#d6d6d6" d="M 343.277344 94.75 L 317.488281 120.550781 C 317.488281 120.550781 300.285156 129.148438 283.089844 111.945312 C 265.886719 94.75 274.484375 77.546875 274.484375 77.546875 L 300.285156 51.75 C 308.890625 43.152344 298.554688 35.269531 290.796875 35.269531 C 252.691406 35.269531 221.8125 66.148438 221.8125 104.242188 C 221.8125 109.59375 222.492188 114.785156 223.636719 119.789062 L 165.332031 178.09375 L 216.921875 229.6875 L 275.226562 171.390625 C 280.242188 172.535156 285.425781 173.214844 290.785156 173.214844 C 328.878906 173.214844 359.757812 142.335938 359.757812 104.242188 C 359.765625 96.433594 351.875 86.15625 343.277344 94.75 Z M 164.316406 179.777344 L 49.667969 294.417969 C 35.609375 308.488281 35.609375 331.296875 49.667969 345.367188 C 63.75 359.429688 86.550781 359.429688 100.621094 345.367188 L 215.25 230.730469 Z M 75.367188 334.730469 C 67.664062 334.730469 61.425781 328.484375 61.425781 320.789062 C 61.425781 313.097656 67.671875 306.839844 75.367188 306.839844 C 83.070312 306.839844 89.304688 313.085938 89.304688 320.789062 C 89.304688 328.484375 83.070312 334.730469 75.367188 334.730469 Z M 75.367188 334.730469 " fill-opacity="1" fill-rule="nonzero"/></g><path fill="#d13f3e" d="M 311.140625 348.28125 C 322.105469 359.25 339.5625 359.765625 349.902344 349.421875 C 360.246094 339.074219 359.730469 321.625 348.761719 310.660156 L 129.9375 91.835938 C 118.960938 80.859375 101.523438 80.351562 91.175781 90.699219 C 80.832031 101.042969 81.347656 118.492188 92.316406 129.457031 Z M 311.140625 348.28125 " fill-opacity="1" fill-rule="nonzero"/><path fill="#d13f3e" d="M 222.855469 43.667969 C 222.855469 43.667969 166.421875 15.453125 119.394531 62.480469 L 53.554688 128.320312 C 53.554688 128.320312 44.148438 118.914062 34.742188 128.320312 L 25.335938 137.726562 C 25.335938 137.726562 15.929688 147.132812 25.335938 156.539062 L 62.960938 194.160156 C 62.960938 194.160156 72.367188 203.566406 81.769531 194.160156 L 91.175781 184.753906 C 91.175781 184.753906 100.582031 175.347656 91.175781 165.941406 L 90.441406 165.210938 C 97.6875 158.222656 108.53125 151.101562 119.394531 156.539062 L 157.015625 118.914062 C 157.015625 118.914062 147.613281 90.699219 166.421875 71.886719 C 185.234375 53.074219 194.640625 53.074219 213.453125 53.074219 C 232.261719 53.074219 222.855469 43.667969 222.855469 43.667969 Z M 222.855469 43.667969 " fill-opacity="1" fill-rule="nonzero"/></svg>