<svg xmlns="http://www.w3.org/2000/svg" xmlns:xlink="http://www.w3.org/1999/xlink" width="500" zoomAndPan="magnify" viewBox="0 0 375 374.999991" height="500" preserveAspectRatio="xMidYMid meet" version="1.0"><defs><filter x="0%" y="0%" width="100%" height="100%" id="id1"><feColorMatrix values="0 0 0 0 1 0 0 0 0 1 0 0 0 0 1 0 0 0 1 0" color-interpolation-filters="sRGB"/></filter><mask id="id2"><g filter="url(#id1)"><rect x="-37.5" width="450" fill="#000000" y="-37.499999" height="449.999989" fill-opacity="0.6275"/></g></mask><clipPath id="id3"><rect x="0" width="367" y="0" height="367"/></clipPath></defs><path fill="#ffffff" d="M 292.234375 10.328125 C 284.109375 10.328125 276.4375 13.519531 270.671875 19.285156 L 249.136719 40.824219 C 244.371094 36.082031 236.628906 36.082031 231.886719 40.824219 L 197.386719 75.324219 C 192.621094 80.089844 192.621094 87.832031 197.386719 92.574219 L 197.671875 92.882812 L 188.238281 102.292969 L 101.703125 15.761719 C 94.769531 8.828125 82.738281 8.828125 75.804688 15.761719 L 15.457031 76.109375 C 8.308594 83.257812 8.308594 94.859375 15.457031 102.007812 L 101.917969 188.472656 L 32.539062 257.777344 C 29.464844 260.851562 27.582031 264.925781 27.226562 269.261719 L 23.101562 320.464844 L 18.816406 350.484375 C 18.527344 352.390625 19.171875 354.296875 20.554688 355.679688 C 21.699219 356.820312 23.246094 357.441406 24.84375 357.441406 C 25.152344 357.441406 25.4375 357.441406 25.722656 357.394531 L 55.769531 353.105469 L 107.230469 349.316406 C 111.613281 348.984375 115.710938 347.125 118.808594 344.003906 L 188.191406 274.765625 L 274.222656 360.777344 C 277.796875 364.351562 282.46875 366.113281 287.160156 366.113281 C 291.855469 366.113281 296.523438 364.351562 300.097656 360.777344 L 360.472656 300.402344 C 367.621094 293.253906 367.621094 281.652344 360.472656 274.503906 L 274.507812 188.542969 L 283.945312 179.109375 C 286.207031 181.226562 289.136719 182.417969 292.234375 182.417969 C 295.5 182.417969 298.574219 181.132812 300.882812 178.820312 L 335.382812 144.324219 C 340.148438 139.582031 340.148438 131.835938 335.382812 127.074219 L 356.945312 105.535156 C 362.710938 99.769531 365.878906 92.121094 365.878906 83.972656 C 365.878906 75.800781 362.710938 68.152344 356.945312 62.386719 L 313.820312 19.285156 C 308.054688 13.519531 300.40625 10.328125 292.234375 10.328125 Z M 88.742188 22.621094 C 90.339844 22.621094 91.910156 23.21875 93.054688 24.386719 L 97.390625 28.671875 L 84.453125 41.609375 C 82.046875 43.992188 82.046875 47.851562 84.453125 50.234375 C 85.621094 51.425781 87.195312 52.023438 88.742188 52.023438 C 90.316406 52.023438 91.886719 51.425781 93.054688 50.234375 L 105.992188 37.296875 L 118.953125 50.234375 L 97.390625 71.796875 C 94.984375 74.203125 94.984375 78.039062 97.390625 80.445312 C 98.558594 81.613281 100.128906 82.210938 101.703125 82.210938 C 103.253906 82.210938 104.824219 81.613281 105.992188 80.445312 L 127.554688 58.859375 L 140.515625 71.796875 L 127.578125 84.757812 C 125.195312 87.140625 125.195312 90.976562 127.578125 93.359375 C 128.769531 94.550781 130.316406 95.148438 131.890625 95.148438 C 133.460938 95.148438 135.011719 94.550781 136.203125 93.359375 L 149.140625 80.445312 L 162.078125 93.359375 L 140.515625 114.945312 C 138.132812 117.328125 138.132812 121.164062 140.515625 123.546875 C 141.707031 124.738281 143.253906 125.355469 144.828125 125.355469 C 146.398438 125.355469 147.949219 124.738281 149.140625 123.546875 L 170.703125 102.007812 L 179.613281 110.894531 L 110.566406 179.871094 L 24.078125 93.359375 C 21.699219 91 21.699219 87.117188 24.078125 84.757812 L 84.453125 24.386719 C 85.597656 23.21875 87.167969 22.621094 88.742188 22.621094 Z M 292.234375 22.71875 C 296.976562 22.71875 301.742188 24.433594 305.195312 27.886719 L 348.320312 71.011719 C 351.777344 74.464844 353.679688 79.0625 353.679688 83.949219 C 353.679688 88.832031 351.777344 93.429688 348.320312 96.886719 L 326.757812 118.472656 L 257.734375 49.449219 L 279.320312 27.886719 C 282.777344 24.433594 287.519531 22.691406 292.234375 22.71875 Z M 240.488281 49.449219 L 283.632812 92.574219 L 322.445312 131.386719 L 326.757812 135.722656 L 318.132812 144.324219 C 315.75 141.941406 311.890625 141.941406 309.507812 144.324219 L 300.882812 152.972656 C 298.5 155.355469 298.5 159.191406 300.882812 161.570312 L 292.285156 170.21875 L 292.257812 170.21875 L 205.988281 83.949219 L 214.613281 75.324219 C 215.804688 76.515625 217.351562 77.109375 218.925781 77.109375 C 220.496094 77.109375 222.046875 76.515625 223.238281 75.324219 L 231.886719 66.699219 C 234.269531 64.316406 234.269531 60.457031 231.886719 58.074219 Z M 249.136719 77.847656 C 247.5625 77.847656 246.015625 78.445312 244.824219 79.636719 L 236.175781 88.261719 C 233.792969 90.644531 233.792969 94.503906 236.175781 96.886719 C 237.367188 98.078125 238.9375 98.671875 240.488281 98.671875 C 242.058594 98.671875 243.632812 98.078125 244.824219 96.886719 L 253.425781 88.261719 C 255.832031 85.878906 255.832031 82.019531 253.425781 79.636719 C 252.234375 78.445312 250.683594 77.847656 249.136719 77.847656 Z M 270.671875 99.433594 C 269.125 99.433594 267.578125 100.007812 266.386719 101.222656 L 257.734375 109.824219 C 255.378906 112.230469 255.378906 116.089844 257.734375 118.472656 C 258.925781 119.640625 260.5 120.234375 262.074219 120.234375 C 263.621094 120.234375 265.167969 119.640625 266.386719 118.472656 L 274.984375 109.824219 C 277.367188 107.441406 277.367188 103.582031 274.984375 101.222656 C 273.792969 100.007812 272.246094 99.433594 270.671875 99.433594 Z M 206.320312 101.507812 L 275.320312 170.53125 L 114.925781 330.660156 L 109.113281 301.59375 L 210.300781 200.382812 C 212.683594 198 212.683594 194.164062 210.300781 191.78125 C 207.917969 189.375 204.082031 189.375 201.675781 191.78125 L 100.464844 292.992188 L 86.097656 290.109375 L 83.214844 275.71875 L 167.175781 191.78125 C 169.558594 189.375 169.558594 185.539062 167.175781 183.132812 C 164.792969 180.75 160.933594 180.75 158.550781 183.132812 L 74.613281 267.09375 L 46.167969 261.425781 Z M 292.257812 120.972656 C 290.710938 120.972656 289.136719 121.570312 287.945312 122.785156 L 279.320312 131.386719 C 276.941406 133.792969 276.941406 137.628906 279.320312 140.035156 C 280.511719 141.203125 282.0625 141.820312 283.632812 141.820312 C 285.207031 141.820312 286.753906 141.203125 287.945312 140.035156 L 296.570312 131.386719 C 298.953125 129.003906 298.953125 125.144531 296.570312 122.785156 C 295.378906 121.570312 293.808594 120.972656 292.257812 120.972656 Z M 197.363281 146.871094 C 195.789062 146.871094 194.242188 147.445312 193.074219 148.636719 L 175.824219 165.910156 C 173.417969 168.289062 173.417969 172.125 175.824219 174.53125 C 176.992188 175.699219 178.5625 176.320312 180.136719 176.320312 C 181.683594 176.320312 183.257812 175.699219 184.425781 174.53125 L 201.675781 157.285156 C 204.082031 154.878906 204.082031 151.042969 201.675781 148.636719 C 200.484375 147.445312 198.933594 146.871094 197.363281 146.871094 Z M 265.882812 197.191406 L 269.910156 201.195312 L 256.949219 214.132812 C 254.566406 216.511719 254.566406 220.375 256.949219 222.753906 C 258.140625 223.945312 259.714844 224.542969 261.261719 224.542969 C 262.835938 224.542969 264.40625 223.945312 265.597656 222.753906 L 278.511719 209.820312 L 291.472656 222.753906 L 269.910156 244.316406 C 267.503906 246.722656 267.503906 250.558594 269.910156 252.964844 C 271.078125 254.132812 272.652344 254.753906 274.199219 254.753906 C 275.773438 254.753906 277.34375 254.132812 278.511719 252.964844 L 300.097656 231.40625 L 313.035156 244.316406 L 300.097656 257.253906 C 297.691406 259.660156 297.691406 263.496094 300.097656 265.902344 C 301.265625 267.070312 302.839844 267.667969 304.410156 267.667969 C 305.960938 267.667969 307.53125 267.070312 308.699219 265.902344 L 321.660156 252.964844 L 334.597656 265.902344 L 313.011719 287.464844 C 310.628906 289.847656 310.628906 293.683594 313.011719 296.066406 C 314.203125 297.257812 315.773438 297.855469 317.347656 297.855469 C 318.894531 297.855469 320.46875 297.257812 321.660156 296.066406 L 343.199219 274.503906 L 351.847656 283.152344 C 354.207031 285.511719 354.207031 289.371094 351.847656 291.753906 L 291.449219 352.152344 C 289.164062 354.4375 285.136719 354.4375 282.847656 352.152344 L 196.816406 266.117188 Z M 39.183594 272.457031 L 71.421875 278.886719 L 74.921875 296.496094 C 75.421875 298.902344 77.304688 300.785156 79.710938 301.261719 L 97.296875 304.785156 L 103.800781 337.332031 L 57.386719 340.738281 L 35.46875 318.84375 Z M 39.183594 272.457031 " fill-opacity="1" fill-rule="nonzero"/><g mask="url(#id2)"><g transform="matrix(1, 0, 0, 1, 1, 5)"><g clip-path="url(#id3)"><path fill="#ff1616" d="M 287.683594 5.328125 C 279.558594 5.328125 271.886719 8.519531 266.121094 14.285156 L 244.582031 35.824219 C 239.816406 31.082031 232.074219 31.082031 227.332031 35.824219 L 192.832031 70.324219 C 188.070312 75.089844 188.070312 82.832031 192.832031 87.574219 L 193.121094 87.882812 L 183.683594 97.292969 L 97.152344 10.761719 C 90.21875 3.828125 78.1875 3.828125 71.253906 10.761719 L 10.902344 71.109375 C 3.753906 78.257812 3.753906 89.859375 10.902344 97.007812 L 97.367188 183.472656 L 27.984375 252.777344 C 24.910156 255.851562 23.03125 259.925781 22.671875 264.261719 L 18.550781 315.464844 L 14.261719 345.484375 C 13.976562 347.390625 14.621094 349.296875 16 350.679688 C 17.144531 351.820312 18.695312 352.441406 20.289062 352.441406 C 20.597656 352.441406 20.886719 352.441406 21.171875 352.394531 L 51.214844 348.105469 L 102.679688 344.316406 C 107.0625 343.984375 111.160156 342.125 114.257812 339.003906 L 183.636719 269.765625 L 269.671875 355.777344 C 273.246094 359.351562 277.914062 361.113281 282.609375 361.113281 C 287.300781 361.113281 291.972656 359.351562 295.546875 355.777344 L 355.917969 295.402344 C 363.066406 288.253906 363.066406 276.652344 355.917969 269.503906 L 269.957031 183.542969 L 279.390625 174.109375 C 281.65625 176.226562 284.585938 177.417969 287.683594 177.417969 C 290.945312 177.417969 294.019531 176.132812 296.332031 173.820312 L 330.832031 139.324219 C 335.597656 134.582031 335.597656 126.835938 330.832031 122.074219 L 352.394531 100.535156 C 358.160156 94.769531 361.328125 87.121094 361.328125 78.972656 C 361.328125 70.800781 358.160156 63.152344 352.394531 57.386719 L 309.269531 14.285156 C 303.503906 8.519531 295.855469 5.328125 287.683594 5.328125 Z M 84.191406 17.621094 C 85.785156 17.621094 87.359375 18.21875 88.503906 19.386719 L 92.839844 23.671875 L 79.902344 36.609375 C 77.496094 38.992188 77.496094 42.851562 79.902344 45.234375 C 81.070312 46.425781 82.640625 47.023438 84.191406 47.023438 C 85.761719 47.023438 87.335938 46.425781 88.503906 45.234375 L 101.4375 32.296875 L 114.402344 45.234375 L 92.839844 66.796875 C 90.433594 69.203125 90.433594 73.039062 92.839844 75.445312 C 94.003906 76.613281 95.578125 77.210938 97.152344 77.210938 C 98.699219 77.210938 100.273438 76.613281 101.4375 75.445312 L 123 53.859375 L 135.960938 66.796875 L 123.023438 79.757812 C 120.644531 82.140625 120.644531 85.976562 123.023438 88.359375 C 124.214844 89.550781 125.765625 90.148438 127.335938 90.148438 C 128.910156 90.148438 130.457031 89.550781 131.648438 88.359375 L 144.585938 75.445312 L 157.523438 88.359375 L 135.960938 109.945312 C 133.578125 112.328125 133.578125 116.164062 135.960938 118.546875 C 137.152344 119.738281 138.703125 120.355469 140.273438 120.355469 C 141.847656 120.355469 143.394531 119.738281 144.585938 118.546875 L 166.148438 97.007812 L 175.058594 105.894531 L 106.015625 174.871094 L 19.527344 88.359375 C 17.144531 86 17.144531 82.117188 19.527344 79.757812 L 79.902344 19.386719 C 81.042969 18.21875 82.617188 17.621094 84.191406 17.621094 Z M 287.683594 17.71875 C 292.425781 17.71875 297.191406 19.433594 300.644531 22.886719 L 343.769531 66.011719 C 347.222656 69.464844 349.128906 74.0625 349.128906 78.949219 C 349.128906 83.832031 347.222656 88.429688 343.769531 91.886719 L 322.207031 113.472656 L 253.183594 44.449219 L 274.769531 22.886719 C 278.222656 19.433594 282.964844 17.691406 287.683594 17.71875 Z M 235.933594 44.449219 L 279.082031 87.574219 L 317.894531 126.386719 L 322.207031 130.722656 L 313.582031 139.324219 C 311.199219 136.941406 307.339844 136.941406 304.957031 139.324219 L 296.332031 147.972656 C 293.949219 150.355469 293.949219 154.191406 296.332031 156.570312 L 287.730469 165.21875 L 287.707031 165.21875 L 201.433594 78.949219 L 210.058594 70.324219 C 211.25 71.515625 212.800781 72.109375 214.371094 72.109375 C 215.945312 72.109375 217.492188 71.515625 218.683594 70.324219 L 227.332031 61.699219 C 229.714844 59.316406 229.714844 55.457031 227.332031 53.074219 Z M 244.582031 72.847656 C 243.011719 72.847656 241.460938 73.445312 240.269531 74.636719 L 231.621094 83.261719 C 229.238281 85.644531 229.238281 89.503906 231.621094 91.886719 C 232.8125 93.078125 234.386719 93.671875 235.933594 93.671875 C 237.507812 93.671875 239.078125 93.078125 240.269531 91.886719 L 248.871094 83.261719 C 251.277344 80.878906 251.277344 77.019531 248.871094 74.636719 C 247.679688 73.445312 246.132812 72.847656 244.582031 72.847656 Z M 266.121094 94.433594 C 264.574219 94.433594 263.023438 95.007812 261.832031 96.222656 L 253.183594 104.824219 C 250.824219 107.230469 250.824219 111.089844 253.183594 113.472656 C 254.375 114.640625 255.949219 115.234375 257.519531 115.234375 C 259.070312 115.234375 260.617188 114.640625 261.832031 113.472656 L 270.433594 104.824219 C 272.816406 102.441406 272.816406 98.582031 270.433594 96.222656 C 269.242188 95.007812 267.695312 94.433594 266.121094 94.433594 Z M 201.769531 96.507812 L 270.765625 165.53125 L 110.375 325.660156 L 104.558594 296.59375 L 205.746094 195.382812 C 208.128906 193 208.128906 189.164062 205.746094 186.78125 C 203.363281 184.375 199.527344 184.375 197.121094 186.78125 L 95.910156 287.992188 L 81.546875 285.109375 L 78.664062 270.71875 L 162.625 186.78125 C 165.003906 184.375 165.003906 180.539062 162.625 178.132812 C 160.242188 175.75 156.382812 175.75 154 178.132812 L 70.0625 262.09375 L 41.613281 256.425781 Z M 287.707031 115.972656 C 286.160156 115.972656 284.585938 116.570312 283.394531 117.785156 L 274.769531 126.386719 C 272.386719 128.792969 272.386719 132.628906 274.769531 135.035156 C 275.960938 136.203125 277.507812 136.820312 279.082031 136.820312 C 280.65625 136.820312 282.203125 136.203125 283.394531 135.035156 L 292.019531 126.386719 C 294.402344 124.003906 294.402344 120.144531 292.019531 117.785156 C 290.828125 116.570312 289.253906 115.972656 287.707031 115.972656 Z M 192.808594 141.871094 C 191.238281 141.871094 189.6875 142.445312 188.523438 143.636719 L 171.273438 160.910156 C 168.867188 163.289062 168.867188 167.125 171.273438 169.53125 C 172.4375 170.699219 174.011719 171.320312 175.585938 171.320312 C 177.132812 171.320312 178.707031 170.699219 179.871094 169.53125 L 197.121094 152.285156 C 199.527344 149.878906 199.527344 146.042969 197.121094 143.636719 C 195.929688 142.445312 194.382812 141.871094 192.808594 141.871094 Z M 261.332031 192.191406 L 265.359375 196.195312 L 252.398438 209.132812 C 250.015625 211.511719 250.015625 215.375 252.398438 217.753906 C 253.589844 218.945312 255.160156 219.542969 256.710938 219.542969 C 258.28125 219.542969 259.855469 218.945312 261.046875 217.753906 L 273.960938 204.820312 L 286.921875 217.753906 L 265.359375 239.316406 C 262.953125 241.722656 262.953125 245.558594 265.359375 247.964844 C 266.527344 249.132812 268.097656 249.753906 269.648438 249.753906 C 271.21875 249.753906 272.792969 249.132812 273.960938 247.964844 L 295.546875 226.40625 L 308.484375 239.316406 L 295.546875 252.253906 C 293.140625 254.660156 293.140625 258.496094 295.546875 260.902344 C 296.714844 262.070312 298.285156 262.667969 299.859375 262.667969 C 301.40625 262.667969 302.980469 262.070312 304.148438 260.902344 L 317.109375 247.964844 L 330.042969 260.902344 L 308.457031 282.464844 C 306.078125 284.847656 306.078125 288.683594 308.457031 291.066406 C 309.648438 292.257812 311.222656 292.855469 312.796875 292.855469 C 314.34375 292.855469 315.917969 292.257812 317.109375 291.066406 L 338.644531 269.503906 L 347.292969 278.152344 C 349.652344 280.511719 349.652344 284.371094 347.292969 286.753906 L 286.898438 347.152344 C 284.609375 349.4375 280.582031 349.4375 278.296875 347.152344 L 192.261719 261.117188 Z M 34.632812 267.457031 L 66.867188 273.886719 L 70.371094 291.496094 C 70.871094 293.902344 72.753906 295.785156 75.160156 296.261719 L 92.742188 299.785156 L 99.246094 332.332031 L 52.835938 335.738281 L 30.914062 313.84375 Z M 34.632812 267.457031 " fill-opacity="1" fill-rule="nonzero"/></g></g></g></svg>