<svg xmlns="http://www.w3.org/2000/svg" xmlns:xlink="http://www.w3.org/1999/xlink" width="500" zoomAndPan="magnify" viewBox="0 0 375 374.999991" height="500" preserveAspectRatio="xMidYMid meet" version="1.0"><defs><clipPath id="id1"><path d="M 7.601562 108.390625 L 363.730469 108.390625 L 363.730469 255.363281 L 7.601562 255.363281 Z M 7.601562 108.390625 " clip-rule="nonzero"/></clipPath><clipPath id="id2"><path d="M 11.617188 119.359375 L 367.746094 119.359375 L 367.746094 266.328125 L 11.617188 266.328125 Z M 11.617188 119.359375 " clip-rule="nonzero"/></clipPath><clipPath id="id3"><path d="M 7.601562 111.910156 L 363.730469 111.910156 L 363.730469 258.878906 L 7.601562 258.878906 Z M 7.601562 111.910156 " clip-rule="nonzero"/></clipPath></defs><g clip-path="url(#id1)"><path fill="#ff1616" d="M 347.714844 208.117188 C 344.0625 216.386719 338.453125 223.789062 331.609375 229.804688 C 324.757812 235.835938 316.511719 240.285156 307.695312 242.910156 C 303.289062 244.21875 298.726562 245.070312 294.109375 245.394531 C 292.953125 245.4375 291.792969 245.53125 290.636719 245.542969 L 287.171875 245.503906 C 286.59375 245.515625 286.015625 245.46875 285.4375 245.414062 L 283.699219 245.269531 L 281.960938 245.132812 C 281.382812 245.066406 280.808594 244.964844 280.230469 244.882812 C 275.59375 244.3125 271.011719 243.140625 266.503906 241.726562 C 261.976562 240.339844 257.582031 238.46875 253.25 236.457031 L 250.019531 234.886719 L 246.847656 233.199219 C 245.78125 232.648438 244.742188 232.046875 243.707031 231.4375 C 242.671875 230.828125 241.613281 230.257812 240.597656 229.609375 C 236.484375 227.113281 232.476562 224.421875 228.53125 221.621094 C 220.691406 215.964844 213.210938 209.753906 206.097656 203.128906 C 200.5625 198.003906 195.207031 192.664062 190.136719 187.050781 L 190.996094 185.964844 L 192.382812 181.882812 C 192.460938 183.132812 191.996094 184.679688 191.214844 185.691406 C 190.832031 186.183594 191.144531 185.78125 191.082031 185.871094 L 191.144531 185.789062 L 191.417969 185.460938 L 191.976562 184.796875 L 193.113281 183.453125 L 195.449219 180.78125 C 197.019531 179.003906 198.625 177.246094 200.25 175.511719 C 203.5 172.03125 206.847656 168.632812 210.265625 165.316406 C 217.121094 158.703125 224.289062 152.425781 231.792969 146.679688 C 235.53125 143.773438 239.390625 141.078125 243.296875 138.472656 C 247.234375 135.921875 251.246094 133.523438 255.351562 131.355469 C 263.566406 127.082031 272.179688 123.679688 280.945312 122.054688 C 281.492188 121.949219 282.039062 121.816406 282.585938 121.738281 L 284.230469 121.53125 L 285.875 121.320312 L 286.699219 121.210938 L 287.519531 121.167969 L 290.800781 120.992188 C 291.902344 120.972656 293.015625 121.015625 294.121094 121.019531 C 298.546875 121.175781 302.945312 121.839844 307.222656 122.960938 C 311.503906 124.082031 315.65625 125.691406 319.605469 127.707031 C 323.5625 129.714844 327.292969 132.179688 330.710938 135.027344 C 337.550781 140.710938 343.210938 147.871094 347.035156 155.941406 C 350.90625 163.984375 353.007812 172.886719 353.128906 181.878906 C 353.234375 190.867188 351.410156 199.871094 347.714844 208.117188 Z M 180.722656 177.273438 L 180.648438 177.367188 L 180.367188 177.722656 C 180.339844 177.761719 180.3125 177.804688 180.28125 177.84375 L 180.296875 177.804688 L 179.257812 179.113281 L 178.15625 180.472656 C 177.410156 181.378906 176.65625 182.285156 175.890625 183.179688 C 174.359375 184.980469 172.792969 186.761719 171.203125 188.519531 C 168.019531 192.042969 164.734375 195.480469 161.371094 198.828125 C 154.628906 205.503906 147.53125 211.816406 140.078125 217.578125 C 136.371094 220.492188 132.523438 223.171875 128.625 225.757812 C 124.710938 228.316406 120.679688 230.640625 116.589844 232.796875 C 108.359375 236.976562 99.742188 240.277344 90.945312 241.800781 L 89.296875 242.105469 L 87.644531 242.292969 C 86.546875 242.402344 85.441406 242.585938 84.34375 242.640625 L 81.039062 242.777344 C 80.765625 242.785156 80.488281 242.808594 80.214844 242.808594 L 79.382812 242.789062 L 77.71875 242.753906 C 73.289062 242.585938 68.878906 241.964844 64.589844 240.839844 C 56.019531 238.605469 47.898438 234.566406 40.984375 228.960938 C 34.089844 223.347656 28.386719 216.246094 24.449219 208.25 C 20.511719 200.25 18.347656 191.378906 18.15625 182.402344 C 17.945312 173.421875 19.699219 164.402344 23.308594 156.125 C 25.109375 151.984375 27.359375 148.03125 30.015625 144.351562 C 32.6875 140.691406 35.738281 137.289062 39.132812 134.253906 C 42.527344 131.21875 46.246094 128.527344 50.230469 126.285156 C 54.21875 124.054688 58.457031 122.253906 62.847656 120.917969 C 67.238281 119.582031 71.789062 118.722656 76.390625 118.371094 C 81.011719 117.984375 85.601562 118.257812 90.222656 118.878906 C 94.835938 119.488281 99.40625 120.679688 103.898438 122.148438 C 106.15625 122.847656 108.359375 123.734375 110.578125 124.589844 C 112.761719 125.535156 114.96875 126.4375 117.109375 127.511719 C 119.277344 128.511719 121.378906 129.660156 123.503906 130.773438 C 125.585938 131.960938 127.699219 133.109375 129.738281 134.386719 C 131.804688 135.609375 133.808594 136.949219 135.84375 138.242188 C 137.84375 139.59375 139.859375 140.917969 141.816406 142.339844 C 145.761719 145.128906 149.609375 148.066406 153.367188 151.121094 C 157.136719 154.171875 160.816406 157.335938 164.425781 160.582031 C 170.195312 165.761719 175.769531 171.167969 181.09375 176.824219 L 181.035156 176.894531 Z M 357.300781 151.195312 C 352.976562 141.550781 346.421875 132.925781 338.398438 125.988281 C 330.390625 119.023438 320.753906 113.890625 310.460938 111.042969 C 305.316406 109.613281 300.011719 108.742188 294.679688 108.476562 C 293.34375 108.449219 292.011719 108.382812 290.671875 108.390625 L 286.640625 108.546875 L 285.632812 108.59375 L 284.632812 108.703125 L 282.644531 108.929688 L 280.652344 109.160156 C 279.992188 109.242188 279.34375 109.386719 278.691406 109.5 C 268.191406 111.285156 258.4375 115.164062 249.320312 119.792969 C 244.769531 122.140625 240.378906 124.71875 236.105469 127.445312 C 231.867188 130.214844 227.703125 133.074219 223.707031 136.128906 C 215.695312 142.210938 208.152344 148.804688 200.949219 155.707031 C 197.355469 159.171875 193.847656 162.71875 190.429688 166.351562 C 188.71875 168.171875 187.03125 170.011719 185.367188 171.882812 C 184.53125 172.816406 183.707031 173.761719 182.882812 174.710938 L 181.652344 176.160156 L 181.371094 176.496094 C 170.304688 162.917969 157.796875 150.460938 144.054688 139.386719 C 142.148438 137.828125 140.171875 136.363281 138.21875 134.867188 C 136.222656 133.421875 134.230469 131.972656 132.167969 130.609375 C 130.140625 129.203125 128.023438 127.914062 125.933594 126.589844 C 123.796875 125.335938 121.675781 124.050781 119.46875 122.898438 C 117.300781 121.679688 115.039062 120.625 112.800781 119.527344 C 110.511719 118.519531 108.238281 117.480469 105.875 116.617188 C 101.183594 114.839844 96.335938 113.324219 91.3125 112.410156 C 90.683594 112.292969 90.066406 112.132812 89.433594 112.054688 L 87.53125 111.796875 C 86.257812 111.632812 84.996094 111.429688 83.703125 111.386719 C 82.417969 111.316406 81.128906 111.203125 79.847656 111.179688 C 78.566406 111.191406 77.28125 111.148438 75.996094 111.214844 C 70.863281 111.402344 65.734375 112.152344 60.738281 113.457031 C 55.742188 114.753906 50.882812 116.625 46.28125 118.996094 C 41.683594 121.378906 37.351562 124.28125 33.367188 127.605469 C 17.308594 140.800781 7.542969 161.484375 7.601562 182.488281 C 7.5625 192.964844 9.84375 203.5 14.273438 213.078125 C 18.714844 222.660156 25.34375 231.207031 33.421875 238.050781 C 41.523438 244.871094 51.136719 249.949219 61.410156 252.746094 C 66.542969 254.160156 71.832031 254.984375 77.144531 255.257812 L 79.140625 255.328125 L 80.136719 255.363281 C 80.46875 255.363281 80.804688 255.351562 81.136719 255.34375 L 85.144531 255.234375 C 86.480469 255.179688 87.796875 254.992188 89.121094 254.871094 L 91.105469 254.667969 L 93.058594 254.339844 C 98.304688 253.558594 103.363281 252.121094 108.289062 250.453125 L 111.945312 249.117188 C 113.152344 248.648438 114.332031 248.128906 115.523438 247.632812 L 117.308594 246.878906 L 119.050781 246.050781 C 120.207031 245.496094 121.375 244.953125 122.523438 244.386719 C 127.074219 242.042969 131.511719 239.519531 135.78125 236.78125 C 140.027344 234.015625 144.199219 231.15625 148.183594 228.078125 C 152.1875 225.027344 156.078125 221.847656 159.828125 218.527344 C 163.585938 215.21875 167.257812 211.820312 170.804688 208.304688 C 174.355469 204.796875 177.8125 201.195312 181.167969 197.5 C 182.847656 195.652344 184.503906 193.777344 186.132812 191.875 C 186.949219 190.925781 187.757812 189.960938 188.5625 188.992188 L 189.765625 187.519531 L 189.816406 187.457031 C 191.457031 189.550781 193.148438 191.613281 194.867188 193.640625 C 198.027344 197.375 201.292969 201.019531 204.664062 204.574219 C 211.421875 211.667969 218.617188 218.367188 226.261719 224.582031 C 230.105469 227.660156 234.035156 230.65625 238.148438 233.410156 C 239.160156 234.121094 240.222656 234.761719 241.257812 235.445312 C 242.296875 236.117188 243.339844 236.792969 244.410156 237.414062 L 247.617188 239.316406 L 250.890625 241.109375 C 255.304688 243.417969 259.820312 245.601562 264.558594 247.308594 C 269.28125 249.035156 274.136719 250.53125 279.171875 251.402344 C 279.796875 251.519531 280.421875 251.65625 281.050781 251.757812 L 282.953125 252 L 284.863281 252.230469 C 285.496094 252.316406 286.132812 252.390625 286.777344 252.410156 L 290.632812 252.605469 C 291.914062 252.644531 293.195312 252.59375 294.480469 252.589844 C 299.621094 252.4375 304.753906 251.695312 309.761719 250.425781 C 319.769531 247.878906 329.269531 243.144531 337.316406 236.5625 C 345.371094 230.003906 352.058594 221.679688 356.585938 212.246094 C 361.144531 202.832031 363.625 192.375 363.726562 181.878906 C 363.847656 171.386719 361.648438 160.820312 357.300781 151.195312 " fill-opacity="1" fill-rule="nonzero"/></g><g clip-path="url(#id2)"><path fill="#a6a6a6" d="M 351.734375 219.085938 C 348.078125 227.351562 342.46875 234.753906 335.625 240.769531 C 328.773438 246.804688 320.527344 251.253906 311.714844 253.875 C 307.304688 255.183594 302.742188 256.035156 298.125 256.359375 C 296.972656 256.40625 295.8125 256.5 294.65625 256.511719 L 291.1875 256.472656 C 290.609375 256.484375 290.03125 256.4375 289.453125 256.382812 L 287.71875 256.238281 L 285.976562 256.097656 C 285.398438 256.03125 284.824219 255.933594 284.246094 255.851562 C 279.613281 255.28125 275.03125 254.105469 270.519531 252.695312 C 265.992188 251.308594 261.597656 249.4375 257.265625 247.425781 L 254.039062 245.855469 L 250.863281 244.167969 C 249.796875 243.617188 248.761719 243.011719 247.722656 242.40625 C 246.691406 241.792969 245.628906 241.222656 244.613281 240.578125 C 240.5 238.078125 236.492188 235.386719 232.550781 232.589844 C 224.707031 226.929688 217.230469 220.71875 210.113281 214.097656 C 204.578125 208.96875 199.222656 203.628906 194.152344 198.019531 L 195.015625 196.933594 L 196.398438 192.851562 C 196.476562 194.097656 196.011719 195.644531 195.230469 196.660156 C 194.847656 197.152344 195.164062 196.746094 195.097656 196.839844 L 195.164062 196.757812 L 195.433594 196.429688 L 195.992188 195.761719 L 197.128906 194.421875 L 199.464844 191.75 C 201.035156 189.972656 202.640625 188.214844 204.265625 186.476562 C 207.519531 183 210.863281 179.597656 214.28125 176.28125 C 221.140625 169.671875 228.304688 163.394531 235.8125 157.644531 C 239.546875 154.742188 243.40625 152.046875 247.316406 149.441406 C 251.25 146.886719 255.261719 144.488281 259.367188 142.324219 C 267.585938 138.046875 276.195312 134.644531 284.960938 133.019531 C 285.507812 132.917969 286.054688 132.785156 286.601562 132.707031 L 288.25 132.5 L 289.894531 132.289062 L 290.714844 132.179688 L 291.535156 132.132812 L 294.816406 131.960938 C 295.917969 131.941406 297.03125 131.984375 298.136719 131.984375 C 302.5625 132.144531 306.960938 132.804688 311.238281 133.929688 C 315.519531 135.050781 319.671875 136.660156 323.625 138.675781 C 327.578125 140.683594 331.308594 143.144531 334.726562 145.992188 C 341.570312 151.679688 347.230469 158.839844 351.054688 166.910156 C 354.921875 174.953125 357.023438 183.855469 357.144531 192.847656 C 357.25 201.835938 355.425781 210.839844 351.734375 219.085938 Z M 184.742188 188.238281 L 184.664062 188.335938 L 184.382812 188.691406 C 184.355469 188.726562 184.328125 188.769531 184.296875 188.808594 L 184.3125 188.769531 L 183.277344 190.082031 L 182.171875 191.4375 C 181.425781 192.34375 180.675781 193.25 179.90625 194.148438 C 178.375 195.949219 176.808594 197.726562 175.21875 199.488281 C 172.035156 203.007812 168.753906 206.445312 165.386719 209.792969 C 158.644531 216.472656 151.546875 222.785156 144.097656 228.542969 C 140.390625 231.457031 136.539062 234.140625 132.640625 236.722656 C 128.726562 239.28125 124.699219 241.609375 120.605469 243.765625 C 112.375 247.945312 103.757812 251.246094 94.960938 252.769531 L 93.316406 253.074219 L 91.660156 253.261719 C 90.5625 253.371094 89.460938 253.554688 88.359375 253.609375 L 85.054688 253.746094 C 84.78125 253.753906 84.507812 253.773438 84.230469 253.777344 L 83.398438 253.757812 L 81.738281 253.71875 C 77.308594 253.554688 72.894531 252.929688 68.605469 251.808594 C 60.035156 249.574219 51.917969 245.535156 45 239.929688 C 38.105469 234.3125 32.402344 227.214844 28.464844 219.214844 C 24.527344 211.21875 22.363281 202.347656 22.171875 193.371094 C 21.960938 184.390625 23.714844 175.367188 27.324219 167.089844 C 29.128906 162.953125 31.375 158.996094 34.03125 155.320312 C 36.703125 151.660156 39.753906 148.253906 43.152344 145.222656 C 46.542969 142.1875 50.261719 139.496094 54.246094 137.253906 C 58.238281 135.023438 62.476562 133.222656 66.863281 131.882812 C 71.253906 130.546875 75.804688 129.691406 80.410156 129.335938 C 85.027344 128.953125 89.621094 129.226562 94.238281 129.847656 C 98.851562 130.457031 103.421875 131.648438 107.914062 133.113281 C 110.175781 133.816406 112.375 134.703125 114.597656 135.554688 C 116.777344 136.503906 118.984375 137.402344 121.125 138.476562 C 123.292969 139.480469 125.394531 140.628906 127.519531 141.742188 C 129.605469 142.925781 131.714844 144.078125 133.753906 145.351562 C 135.820312 146.578125 137.828125 147.917969 139.859375 149.210938 C 141.859375 150.558594 143.875 151.882812 145.832031 153.304688 C 149.777344 156.09375 153.625 159.035156 157.386719 162.089844 C 161.152344 165.140625 164.832031 168.300781 168.445312 171.550781 C 174.210938 176.730469 179.785156 182.136719 185.109375 187.792969 L 185.050781 187.859375 Z M 361.316406 162.160156 C 356.996094 152.515625 350.441406 143.890625 342.417969 136.953125 C 334.40625 129.992188 324.769531 124.859375 314.480469 122.007812 C 309.335938 120.582031 304.027344 119.710938 298.695312 119.445312 C 297.359375 119.417969 296.027344 119.351562 294.6875 119.359375 L 290.65625 119.511719 L 289.648438 119.558594 L 288.652344 119.671875 L 286.660156 119.894531 L 284.667969 120.125 C 284.007812 120.210938 283.363281 120.355469 282.707031 120.46875 C 272.207031 122.253906 262.453125 126.128906 253.335938 130.757812 C 248.785156 133.109375 244.394531 135.6875 240.121094 138.410156 C 235.886719 141.183594 231.722656 144.042969 227.726562 147.097656 C 219.710938 153.175781 212.171875 159.769531 204.964844 166.675781 C 201.371094 170.140625 197.863281 173.683594 194.445312 177.320312 C 192.734375 179.140625 191.046875 180.980469 189.382812 182.847656 C 188.546875 183.78125 187.722656 184.726562 186.898438 185.679688 L 185.667969 187.125 L 185.386719 187.460938 C 174.320312 173.882812 161.816406 161.429688 148.070312 150.355469 C 146.167969 148.796875 144.191406 147.328125 142.234375 145.835938 C 140.242188 144.386719 138.246094 142.9375 136.183594 141.578125 C 134.15625 140.167969 132.039062 138.882812 129.949219 137.558594 C 127.8125 136.304688 125.691406 135.015625 123.488281 133.867188 C 121.320312 132.648438 119.058594 131.59375 116.816406 130.492188 C 114.53125 129.488281 112.253906 128.445312 109.890625 127.585938 C 105.199219 125.804688 100.351562 124.289062 95.328125 123.378906 C 94.699219 123.261719 94.082031 123.097656 93.449219 123.023438 L 91.546875 122.761719 C 90.277344 122.597656 89.011719 122.394531 87.71875 122.351562 C 86.433594 122.285156 85.148438 122.171875 83.863281 122.144531 C 82.582031 122.160156 81.296875 122.117188 80.015625 122.183594 C 74.878906 122.371094 69.75 123.121094 64.753906 124.421875 C 59.757812 125.722656 54.902344 127.589844 50.300781 129.964844 C 45.699219 132.34375 41.367188 135.246094 37.382812 138.570312 C 21.324219 151.765625 11.558594 172.453125 11.617188 193.457031 C 11.578125 203.929688 13.859375 214.46875 18.292969 224.046875 C 22.730469 233.628906 29.359375 242.171875 37.4375 249.015625 C 45.542969 255.839844 55.15625 260.914062 65.425781 263.710938 C 70.558594 265.128906 75.851562 265.949219 81.164062 266.222656 L 83.15625 266.296875 L 84.152344 266.328125 C 84.484375 266.332031 84.820312 266.316406 85.152344 266.308594 L 89.164062 266.199219 C 90.5 266.148438 91.8125 265.960938 93.136719 265.839844 L 95.121094 265.632812 L 97.078125 265.308594 C 102.324219 264.527344 107.378906 263.089844 112.304688 261.421875 L 115.964844 260.085938 C 117.167969 259.617188 118.347656 259.09375 119.539062 258.597656 L 121.324219 257.84375 L 123.066406 257.019531 C 124.222656 256.460938 125.390625 255.921875 126.539062 255.355469 C 131.09375 253.011719 135.527344 250.488281 139.796875 247.746094 C 144.042969 244.984375 148.21875 242.121094 152.199219 239.046875 C 156.203125 235.996094 160.09375 232.8125 163.84375 229.496094 C 167.601562 226.183594 171.273438 222.789062 174.820312 219.273438 C 178.371094 215.761719 181.828125 212.164062 185.1875 208.464844 C 186.867188 206.621094 188.523438 204.746094 190.152344 202.839844 C 190.96875 201.890625 191.777344 200.929688 192.578125 199.957031 L 193.785156 198.484375 L 193.832031 198.421875 C 195.472656 200.515625 197.164062 202.578125 198.882812 204.609375 C 202.042969 208.339844 205.3125 211.988281 208.679688 215.542969 C 215.4375 222.632812 222.636719 229.332031 230.277344 235.550781 C 234.121094 238.625 238.050781 241.625 242.164062 244.378906 C 243.175781 245.089844 244.238281 245.730469 245.273438 246.410156 C 246.3125 247.085938 247.355469 247.757812 248.429688 248.378906 L 251.632812 250.285156 L 254.910156 252.078125 C 259.320312 254.386719 263.835938 256.566406 268.574219 258.273438 C 273.296875 260.003906 278.15625 261.5 283.1875 262.371094 C 283.8125 262.488281 284.4375 262.625 285.066406 262.726562 L 286.972656 262.964844 L 288.878906 263.199219 C 289.511719 263.285156 290.152344 263.359375 290.792969 263.375 L 294.648438 263.570312 C 295.929688 263.613281 297.214844 263.5625 298.5 263.558594 C 303.640625 263.402344 308.773438 262.660156 313.777344 261.394531 C 323.785156 258.847656 333.285156 254.113281 341.335938 247.53125 C 349.386719 240.972656 356.074219 232.644531 360.601562 223.210938 C 365.160156 213.800781 367.640625 203.34375 367.746094 192.847656 C 367.863281 182.351562 365.664062 171.789062 361.316406 162.160156 " fill-opacity="1" fill-rule="nonzero"/></g><g clip-path="url(#id3)"><path fill="#ffffff" d="M 347.714844 211.636719 C 344.0625 219.902344 338.453125 227.308594 331.609375 233.324219 C 324.757812 239.355469 316.511719 243.804688 307.695312 246.425781 C 303.289062 247.734375 298.726562 248.585938 294.109375 248.910156 C 292.953125 248.957031 291.792969 249.050781 290.636719 249.0625 L 287.171875 249.023438 C 286.59375 249.035156 286.015625 248.988281 285.4375 248.933594 L 283.699219 248.789062 L 281.960938 248.648438 C 281.382812 248.582031 280.808594 248.484375 280.230469 248.402344 C 275.59375 247.832031 271.011719 246.65625 266.503906 245.246094 C 261.976562 243.859375 257.582031 241.988281 253.25 239.976562 L 250.019531 238.40625 L 246.847656 236.71875 C 245.78125 236.167969 244.742188 235.5625 243.707031 234.957031 C 242.671875 234.34375 241.613281 233.773438 240.597656 233.128906 C 236.484375 230.628906 232.476562 227.9375 228.53125 225.140625 C 220.691406 219.480469 213.210938 213.269531 206.097656 206.648438 C 200.5625 201.519531 195.207031 196.179688 190.136719 190.570312 L 190.996094 189.484375 L 192.382812 185.402344 C 192.460938 186.648438 191.996094 188.195312 191.214844 189.210938 C 190.832031 189.703125 191.144531 189.300781 191.082031 189.390625 L 191.144531 189.308594 L 191.417969 188.980469 L 191.976562 188.3125 L 193.113281 186.972656 L 195.449219 184.300781 C 197.019531 182.523438 198.625 180.765625 200.25 179.027344 C 203.5 175.550781 206.847656 172.148438 210.265625 168.832031 C 217.121094 162.222656 224.289062 155.945312 231.792969 150.199219 C 235.53125 147.292969 239.390625 144.597656 243.296875 141.992188 C 247.234375 139.4375 251.246094 137.039062 255.351562 134.875 C 263.566406 130.597656 272.179688 127.195312 280.945312 125.570312 C 281.492188 125.46875 282.039062 125.335938 282.585938 125.257812 L 284.230469 125.050781 L 285.875 124.839844 L 286.699219 124.730469 L 287.519531 124.683594 L 290.800781 124.511719 C 291.902344 124.492188 293.015625 124.535156 294.121094 124.535156 C 298.546875 124.695312 302.945312 125.355469 307.222656 126.480469 C 311.503906 127.601562 315.65625 129.210938 319.605469 131.226562 C 323.5625 133.234375 327.292969 135.695312 330.710938 138.542969 C 337.550781 144.230469 343.210938 151.390625 347.035156 159.460938 C 350.90625 167.503906 353.007812 176.40625 353.128906 185.398438 C 353.234375 194.386719 351.410156 203.390625 347.714844 211.636719 Z M 180.722656 180.789062 L 180.648438 180.886719 L 180.367188 181.242188 C 180.339844 181.277344 180.3125 181.320312 180.28125 181.359375 L 180.296875 181.320312 L 179.257812 182.632812 L 178.15625 183.988281 C 177.410156 184.894531 176.65625 185.800781 175.890625 186.699219 C 174.359375 188.5 172.792969 190.277344 171.203125 192.039062 C 168.019531 195.558594 164.734375 198.996094 161.371094 202.34375 C 154.628906 209.023438 147.53125 215.335938 140.078125 221.09375 C 136.371094 224.007812 132.523438 226.691406 128.625 229.273438 C 124.710938 231.832031 120.679688 234.160156 116.589844 236.316406 C 108.359375 240.496094 99.742188 243.796875 90.945312 245.320312 L 89.296875 245.625 L 87.644531 245.8125 C 86.546875 245.921875 85.441406 246.105469 84.34375 246.160156 L 81.039062 246.296875 C 80.765625 246.304688 80.488281 246.324219 80.214844 246.328125 L 77.71875 246.269531 C 73.289062 246.105469 68.878906 245.480469 64.589844 244.359375 C 56.019531 242.125 47.898438 238.085938 40.984375 232.480469 C 34.089844 226.863281 28.386719 219.765625 24.449219 211.765625 C 20.511719 203.769531 18.347656 194.898438 18.15625 185.921875 C 17.945312 176.941406 19.699219 167.917969 23.308594 159.640625 C 25.109375 155.503906 27.359375 151.546875 30.015625 147.871094 C 32.6875 144.210938 35.738281 140.804688 39.132812 137.773438 C 42.527344 134.738281 46.246094 132.046875 50.230469 129.804688 C 54.21875 127.574219 58.457031 125.773438 62.847656 124.433594 C 67.238281 123.097656 71.789062 122.242188 76.390625 121.886719 C 81.011719 121.503906 85.601562 121.777344 90.222656 122.398438 C 94.835938 123.007812 99.40625 124.199219 103.898438 125.664062 C 106.15625 126.367188 108.359375 127.253906 110.578125 128.105469 C 112.761719 129.054688 114.96875 129.953125 117.109375 131.027344 C 119.277344 132.03125 121.378906 133.179688 123.503906 134.292969 C 125.585938 135.476562 127.699219 136.628906 129.738281 137.902344 C 131.804688 139.128906 133.808594 140.46875 135.84375 141.761719 C 137.84375 143.109375 139.859375 144.433594 141.816406 145.855469 C 145.761719 148.644531 149.609375 151.585938 153.367188 154.640625 C 157.136719 157.691406 160.816406 160.851562 164.425781 164.101562 C 170.195312 169.28125 175.769531 174.6875 181.09375 180.34375 Z M 357.300781 154.710938 C 352.976562 145.066406 346.421875 136.441406 338.398438 129.503906 C 330.390625 122.542969 320.753906 117.410156 310.460938 114.558594 C 305.316406 113.132812 300.011719 112.261719 294.679688 111.996094 C 293.34375 111.96875 292.011719 111.902344 290.671875 111.910156 L 286.640625 112.0625 L 285.632812 112.109375 L 284.632812 112.222656 L 282.644531 112.445312 L 280.652344 112.675781 C 279.992188 112.761719 279.34375 112.90625 278.691406 113.019531 C 268.191406 114.804688 258.4375 118.679688 249.320312 123.308594 C 244.769531 125.660156 240.378906 128.238281 236.105469 130.960938 C 231.867188 133.734375 227.703125 136.59375 223.707031 139.648438 C 215.695312 145.726562 208.152344 152.320312 200.949219 159.226562 C 197.355469 162.691406 193.847656 166.234375 190.429688 169.871094 C 188.71875 171.691406 187.03125 173.53125 185.367188 175.398438 C 184.53125 176.332031 183.707031 177.277344 182.882812 178.230469 L 181.652344 179.675781 L 181.371094 180.011719 C 170.304688 166.433594 157.796875 153.980469 144.054688 142.90625 C 142.148438 141.347656 140.171875 139.878906 138.21875 138.386719 C 136.222656 136.9375 134.230469 135.488281 132.167969 134.128906 C 130.140625 132.71875 128.023438 131.433594 125.933594 130.109375 C 123.796875 128.855469 121.675781 127.566406 119.46875 126.417969 C 117.300781 125.199219 115.039062 124.144531 112.800781 123.042969 C 110.511719 122.039062 108.238281 120.996094 105.875 120.136719 C 101.183594 118.355469 96.335938 116.839844 91.3125 115.929688 C 90.683594 115.8125 90.066406 115.648438 89.433594 115.574219 L 87.53125 115.3125 C 86.257812 115.148438 84.996094 114.945312 83.703125 114.902344 C 82.417969 114.835938 81.128906 114.722656 79.847656 114.695312 C 78.566406 114.710938 77.28125 114.667969 75.996094 114.734375 C 70.863281 114.921875 65.734375 115.671875 60.738281 116.976562 C 55.742188 118.273438 50.882812 120.140625 46.28125 122.515625 C 41.683594 124.894531 37.351562 127.796875 33.367188 131.121094 C 17.308594 144.320312 7.542969 165.003906 7.601562 186.007812 C 7.5625 196.480469 9.84375 207.019531 14.273438 216.597656 C 18.714844 226.179688 25.34375 234.722656 33.421875 241.566406 C 41.523438 248.390625 51.136719 253.464844 61.410156 256.261719 C 66.542969 257.679688 71.832031 258.5 77.144531 258.773438 L 79.140625 258.847656 L 80.136719 258.878906 C 80.46875 258.882812 80.804688 258.867188 81.136719 258.859375 L 85.144531 258.753906 C 86.480469 258.699219 87.796875 258.511719 89.121094 258.390625 L 91.105469 258.183594 L 93.058594 257.859375 C 98.304688 257.078125 103.363281 255.640625 108.289062 253.972656 L 111.945312 252.636719 C 113.152344 252.167969 114.332031 251.644531 115.523438 251.148438 L 117.308594 250.394531 L 119.050781 249.570312 C 120.207031 249.011719 121.375 248.472656 122.523438 247.90625 C 127.074219 245.5625 131.511719 243.039062 135.78125 240.296875 C 140.027344 237.535156 144.199219 234.671875 148.183594 231.597656 C 152.1875 228.546875 156.078125 225.363281 159.828125 222.046875 C 163.585938 218.734375 167.257812 215.339844 170.804688 211.824219 C 174.355469 208.3125 177.8125 204.714844 181.167969 201.015625 C 182.847656 199.171875 184.503906 197.296875 186.132812 195.390625 C 186.949219 194.441406 187.757812 193.480469 188.5625 192.507812 L 189.765625 191.035156 L 189.816406 190.972656 C 191.457031 193.066406 193.148438 195.128906 194.867188 197.160156 C 198.027344 200.890625 201.292969 204.539062 204.664062 208.09375 C 211.421875 215.183594 218.617188 221.882812 226.261719 228.101562 C 230.105469 231.175781 234.035156 234.175781 238.148438 236.929688 C 239.160156 237.640625 240.222656 238.28125 241.257812 238.960938 C 242.296875 239.636719 243.339844 240.308594 244.410156 240.929688 L 247.617188 242.835938 L 250.890625 244.628906 C 255.304688 246.9375 259.820312 249.117188 264.558594 250.824219 C 269.28125 252.554688 274.136719 254.050781 279.171875 254.921875 C 279.796875 255.039062 280.421875 255.175781 281.050781 255.277344 L 282.953125 255.515625 L 284.863281 255.75 C 285.496094 255.835938 286.132812 255.910156 286.777344 255.925781 L 290.632812 256.121094 C 291.914062 256.164062 293.195312 256.113281 294.480469 256.109375 C 299.621094 255.953125 304.753906 255.210938 309.761719 253.945312 C 319.769531 251.398438 329.269531 246.664062 337.316406 240.082031 C 345.371094 233.523438 352.058594 225.195312 356.585938 215.761719 C 361.144531 206.351562 363.625 195.894531 363.726562 185.398438 C 363.847656 174.902344 361.648438 164.339844 357.300781 154.710938 " fill-opacity="1" fill-rule="nonzero"/></g></svg>